<?xml version="1.0" standalone="no"?>
<!DOCTYPE svg PUBLIC "-//W3C//DTD SVG 1.1//EN" "http://www.w3.org/Graphics/SVG/1.1/DTD/svg11.dtd" >
<svg xmlns="http://www.w3.org/2000/svg">
<metadata>Generated by IcoMoon</metadata>
<defs>
<font id="icomoon" horiz-adv-x="1024">
<font-face units-per-em="1024" ascent="960" descent="-64" />
<missing-glyph horiz-adv-x="1024" />
<glyph unicode="&#x20;" horiz-adv-x="512" d="" />
<glyph unicode="&#xe900;" glyph-name="pin" d="M512 704c-31.645 0-62.581-9.384-88.891-26.965-26.313-17.581-46.819-42.57-58.93-71.806-12.11-29.237-15.279-61.409-9.105-92.443 6.174-31.038 21.414-59.546 43.788-81.924 22.378-22.374 50.885-37.614 81.924-43.787 31.035-6.173 63.206-3.006 92.442 9.103 29.239 12.112 54.224 32.618 71.808 58.931 17.58 26.309 26.964 57.245 26.964 88.891 0 42.434-16.856 83.131-46.863 113.137s-70.704 46.863-113.137 46.863zM512 448c-18.988 0-37.548 5.632-53.336 16.179s-28.091 25.541-35.357 43.085c-7.267 17.54-9.165 36.842-5.464 55.464 3.705 18.622 12.848 35.728 26.273 49.154 13.429 13.426 30.533 22.569 49.156 26.273s37.925 1.803 55.464-5.463c17.543-7.266 32.538-19.57 43.085-35.358s16.179-34.347 16.179-53.335c0-25.461-10.116-49.88-28.116-67.884-18.004-18-42.423-28.116-67.884-28.116zM512 896c-93.323-0.106-182.795-37.225-248.785-103.215s-103.109-155.461-103.215-248.785c0-125.601 58.040-258.721 168-384.998 49.41-57.066 105.017-108.449 165.798-153.201 5.383-3.771 11.791-5.793 18.363-5.793 6.568 0 12.979 2.022 18.359 5.793 60.672 44.771 116.173 96.154 165.478 153.201 109.802 126.277 168.002 259.397 168.002 384.998-0.106 93.324-37.226 182.795-103.216 248.785s-155.461 103.109-248.784 103.215zM512 71.998c-66.121 52.001-288 243.003-288 472.002 0 76.382 30.343 149.636 84.353 203.647s127.264 84.353 203.647 84.353c76.383 0 149.636-30.343 203.648-84.353 54.009-54.011 84.352-127.265 84.352-203.647 0-228.919-221.879-420.001-288-472.002z" />
<glyph unicode="&#xe901;" glyph-name="chat" d="M854 256.667v512h-684v-598l86 86h598zM854 852.667q34 0 59-25t25-59v-512q0-34-25-60t-59-26h-598l-170-170v768q0 34 25 59t59 25h684z" />
<glyph unicode="&#xe902;" glyph-name="clock" d="M512 857.6c-225.849 0-409.6-183.751-409.6-409.6s183.751-409.6 409.6-409.6c225.848 0 409.6 183.752 409.6 409.6s-183.752 409.6-409.6 409.6zM512 89.6c-197.625 0-358.4 160.773-358.4 358.4 0 197.625 160.775 358.4 358.4 358.4 197.627 0 358.4-160.775 358.4-358.4 0-197.627-160.773-358.4-358.4-358.4zM537.6 704h-51.2v-266.598l161.101-161.101 36.198 36.198-146.099 146.102v245.399z" />
<glyph unicode="&#xe903;" glyph-name="youtube" d="M920.021 655.488c12.245-65.237 19.115-140.587 18.645-218.667 0.811-65.195-5.248-139.392-18.645-214.229-2.432-8.875-6.4-17.195-11.605-24.533-9.685-13.696-23.808-24.107-40.491-28.8-25.771-6.869-91.989-11.733-165.419-14.549-95.147-3.669-190.507-3.669-190.507-3.669s-95.36 0-190.507 3.627c-73.429 2.816-139.648 7.637-164.949 14.421-8.747 2.432-16.896 6.357-24.149 11.435-13.269 9.387-23.467 22.869-28.587 39.381-12.16 65.109-18.944 140.203-18.475 218.027-0.896 65.707 5.163 140.459 18.645 215.893 2.432 8.875 6.4 17.195 11.605 24.533 9.685 13.696 23.808 24.107 40.491 28.8 25.771 6.869 91.989 11.733 165.419 14.549 95.147 3.627 190.507 3.627 190.507 3.627s95.36 0 190.549-3.328c73.344-2.56 140.032-6.955 164.523-12.928 9.344-2.688 17.963-7.040 25.515-12.757 13.099-9.899 22.955-23.936 27.435-40.875zM1003.093 675.115c-9.259 36.949-30.635 67.84-59.008 89.301-15.915 12.032-33.963 21.077-53.291 26.667-38.315 9.387-115.029 13.781-185.259 16.213-96.725 3.371-193.536 3.371-193.536 3.371s-96.939 0-193.749-3.712c-70.059-2.688-147.2-7.467-184.192-17.365-37.291-10.539-67.456-32.853-88.064-61.867-11.52-16.256-20.011-34.603-25.045-54.101-0.256-1.024-0.469-2.091-0.64-3.029-14.635-80.981-21.291-161.835-20.309-233.856-0.512-82.091 6.869-163.456 20.352-234.752 0.256-1.323 0.555-2.645 0.896-3.755 10.453-36.693 32.853-66.859 61.909-87.381 15.232-10.752 32.299-18.901 50.432-23.936 37.504-10.027 114.603-14.805 184.661-17.493 96.811-3.712 193.749-3.712 193.749-3.712s96.939 0 193.749 3.712c70.059 2.688 147.157 7.467 184.192 17.365 37.248 10.539 67.456 32.853 88.021 61.867 11.52 16.256 20.053 34.603 25.045 54.059 0.256 1.067 0.512 2.133 0.64 3.029 14.507 80.384 21.163 160.64 20.309 232.107 0.512 82.133-6.869 163.541-20.352 234.837-0.171 0.853-0.341 1.707-0.512 2.432zM458.667 371.158v132.352l116.352-66.176zM437.077 260.736l245.333 139.52c20.48 11.648 27.648 37.717 16 58.197-3.968 6.997-9.643 12.459-16 16l-245.333 139.52c-20.48 11.648-46.549 4.48-58.197-16-3.84-6.741-5.632-14.080-5.589-21.077v-279.040c0-23.552 19.115-42.667 42.667-42.667 7.765 0 15.019 2.091 21.077 5.589z" />
<glyph unicode="&#xe904;" glyph-name="user" d="M923.684 112.005c-60.923 105.318-154.803 180.838-264.361 216.637 54.19 32.261 96.297 81.423 119.849 139.929 23.547 58.508 27.244 123.128 10.511 183.938-16.727 60.81-52.956 114.447-103.122 152.673s-111.493 58.93-174.561 58.93c-63.068 0-124.393-20.703-174.558-58.93s-86.393-91.863-103.123-152.673c-16.73-60.81-13.036-125.43 10.514-183.938 23.55-58.506 65.655-107.668 119.848-139.929-109.56-35.758-203.44-111.278-264.36-216.637-2.234-3.645-3.716-7.695-4.358-11.924-0.643-4.224-0.432-8.535 0.619-12.677s2.92-8.028 5.498-11.438c2.578-3.405 5.813-6.262 9.513-8.402 3.7-2.135 7.791-3.512 12.031-4.040 4.24-0.532 8.543-0.21 12.656 0.952 4.113 1.157 7.952 3.128 11.291 5.796s6.11 5.975 8.148 9.733c75.36 130.237 208.56 208 356.279 208 147.722 0 280.919-77.763 356.28-208 2.043-3.758 4.813-7.066 8.151-9.733s7.178-4.639 11.29-5.796c4.111-1.162 8.417-1.485 12.657-0.952 4.239 0.527 8.33 1.905 12.032 4.040 3.697 2.14 6.932 4.997 9.513 8.402 2.575 3.41 4.449 7.296 5.499 11.438s1.26 8.453 0.62 12.677c-0.645 4.229-2.125 8.279-4.357 11.924zM288.002 576.004c0 44.303 13.137 87.611 37.751 124.448s59.597 65.547 100.528 82.501c40.931 16.954 85.97 21.39 129.419 12.747 43.453-8.643 83.369-29.977 114.693-61.304 31.329-31.327 52.664-71.24 61.307-114.692s4.204-88.49-12.749-129.421c-16.952-40.931-45.665-75.916-82.504-100.528-36.833-24.612-80.143-37.75-124.447-37.75-59.387 0.061-116.326 23.68-158.32 65.674-41.995 41.997-65.615 98.935-65.678 158.324z" />
<glyph unicode="&#xe905;" glyph-name="calendar" d="M832 832h-96v32c0 8.487-3.369 16.626-9.375 22.627-6.001 6.001-14.136 9.373-22.625 9.373s-16.625-3.372-22.625-9.373c-6.006-6.001-9.375-14.14-9.375-22.627v-32h-320v32c0 8.487-3.372 16.626-9.373 22.627s-14.14 9.373-22.627 9.373c-8.487 0-16.626-3.372-22.627-9.373s-9.373-14.14-9.373-22.627v-32h-96c-16.974 0-33.252-6.743-45.255-18.745s-18.745-28.281-18.745-45.255v-640c0-16.973 6.743-33.254 18.745-45.256s28.281-18.744 45.255-18.744h640c16.973 0 33.254 6.743 45.256 18.744s18.744 28.283 18.744 45.256v640c0 16.974-6.743 33.252-18.744 45.255s-28.283 18.745-45.256 18.745zM288 768v-32c0-8.487 3.372-16.626 9.373-22.627s14.14-9.373 22.627-9.373c8.487 0 16.626 3.372 22.627 9.373s9.373 14.14 9.373 22.627v32h320v-32c0-8.487 3.369-16.626 9.375-22.627 6.001-6.001 14.136-9.373 22.625-9.373s16.625 3.372 22.625 9.373c6.006 6.001 9.375 14.14 9.375 22.627v32h96v-128h-640v128h96zM832 128h-640v448h640v-448z" />
<glyph unicode="&#xe906;" glyph-name="quote" d="M243.367 485.389c-36.472-0.123-72.298-9.631-104.031-27.61 44.677 115.643 118.776 217.613 214.965 295.823 5.501 4.532 10.058 10.104 13.409 16.398s5.427 13.185 6.116 20.281c0.686 7.096-0.033 14.258-2.112 21.078-2.081 6.819-5.486 13.161-10.017 18.664-4.534 5.504-10.104 10.060-16.399 13.411-6.292 3.35-13.184 5.428-20.28 6.115s-14.259-0.031-21.076-2.112c-6.82-2.081-13.164-5.485-18.665-10.017-197.215-160.237-284.976-382.104-284.976-519.661 0.34-48.637 14.834-96.123 41.713-136.66s64.979-72.371 109.649-91.615c28.91-14.006 60.569-21.414 92.691-21.693 28.274-1.375 56.531 3.008 83.060 12.879 26.529 9.874 50.778 25.032 71.276 44.557 20.495 19.523 36.813 43.008 47.962 69.025 11.151 26.020 16.899 54.031 16.899 82.337 0 28.308-5.747 56.32-16.899 82.34-11.149 26.017-27.466 49.503-47.962 69.025-20.498 19.525-44.746 34.683-71.276 44.557-26.529 9.871-54.787 14.254-83.060 12.879h-0.986zM792.668 485.358c-36.477-0.079-72.315-9.59-104.031-27.61 44.657 115.52 118.561 217.457 214.469 295.822 6.003 4.327 11.059 9.837 14.853 16.19s6.246 13.416 7.209 20.753c0.963 7.337 0.412 14.794-1.615 21.911s-5.489 13.743-10.173 19.472c-4.682 5.729-10.491 10.438-17.062 13.839s-13.77 5.42-21.153 5.934c-7.38 0.514-14.792-0.487-21.77-2.944-6.981-2.456-13.386-6.315-18.819-11.339-197.215-160.237-284.974-382.103-284.974-519.662 0.233-48.087 14.303-95.089 40.532-135.393s63.506-72.207 107.377-91.896c29.642-14.413 62.195-21.837 95.158-21.693 28.273-1.375 56.532 3.008 83.062 12.882 26.529 9.871 50.778 25.032 71.273 44.554 20.495 19.525 36.813 43.008 47.964 69.028 11.149 26.017 16.899 54.031 16.899 82.337 0 28.308-5.75 56.32-16.899 82.337-11.151 26.020-27.469 49.503-47.964 69.028s-44.744 34.683-71.273 44.554c-26.529 9.874-54.789 14.257-83.062 12.882v-0.986z" />
<glyph unicode="&#xe907;" glyph-name="linkedin" d="M864 864h-704c-16.974 0-33.252-6.743-45.255-18.745s-18.745-28.281-18.745-45.255v-704c0-16.973 6.743-33.254 18.745-45.256s28.281-18.744 45.255-18.744h704c16.973 0 33.254 6.743 45.256 18.744s18.744 28.283 18.744 45.256v704c0 16.974-6.743 33.252-18.744 45.255s-28.283 18.745-45.256 18.745zM864 96h-704v704h704v-704zM384 512v-256c0-8.489-3.372-16.625-9.373-22.625-6.001-6.006-14.14-9.375-22.627-9.375s-16.626 3.369-22.627 9.375c-6.001 6.001-9.373 14.136-9.373 22.625v256c0 8.487 3.372 16.626 9.373 22.627s14.14 9.373 22.627 9.373c8.487 0 16.626-3.372 22.627-9.373s9.373-14.14 9.373-22.627zM736 400v-144c0-8.489-3.369-16.625-9.375-22.625-6.001-6.006-14.136-9.375-22.625-9.375s-16.625 3.369-22.625 9.375c-6.006 6.001-9.375 14.136-9.375 22.625v144c0 21.217-8.428 41.564-23.429 56.568-15.007 15.003-35.354 23.432-56.571 23.432s-41.564-8.429-56.571-23.432c-15.002-15.004-23.429-35.351-23.429-56.568v-144c0-8.489-3.372-16.625-9.373-22.625-6.001-6.006-14.14-9.375-22.627-9.375s-16.626 3.369-22.627 9.375c-6.001 6.001-9.373 14.136-9.373 22.625v256c0.040 7.838 2.955 15.389 8.193 21.221s12.433 9.538 20.222 10.416c7.789 0.878 15.629-1.133 22.034-5.652s10.928-11.231 12.711-18.864c21.648 14.685 46.884 23.196 73.007 24.62 26.117 1.423 52.132-4.296 75.249-16.542 23.112-12.247 42.455-30.558 55.951-52.967 13.491-22.41 20.623-48.072 20.634-74.23zM400 624c0-9.494-2.815-18.774-8.090-26.668s-12.771-14.046-21.541-17.679c-8.771-3.633-18.422-4.583-27.734-2.732s-17.864 6.424-24.577 13.137c-6.713 6.713-11.284 15.266-13.137 24.577s-0.901 18.962 2.732 27.734c3.633 8.771 9.785 16.267 17.679 21.541s17.174 8.090 26.668 8.090c12.73 0 24.94-5.057 33.941-14.059s14.059-21.211 14.059-33.941z" />
<glyph unicode="&#xe908;" glyph-name="star" d="M295.295 371.386l-154.863 114.971c-29.229 20.963-16.409 63.119 20.683 67.872l219.646 8.776 93.798 210.895c6.538 11.689 19.828 19.047 34.399 19.047s27.862-7.397 34.398-19.047l93.798-210.895 219.648-8.776c37.090-4.752 49.912-46.908 20.685-67.872l-154.867-114.971 42.264-224.463c4.872-30.618-30.596-53.539-61.408-39.704l-194.519 110.872-194.519-110.835c-30.853-13.835-66.278 9.087-61.407 39.704l42.263 224.426z" />
<glyph unicode="&#xe909;" glyph-name="frame-1" d="M934.792 401.896c-4.383 4.485-10.732 6.308-16.855 5.059-27.505-5.919-59.74-4.792-95.805 2.847 29.307 35.553 52.142 75.837 62.771 120.852 1.413 6.083-0.348 12.472-4.731 16.937-4.383 4.485-10.834 6.349-16.835 5.059-27.525-5.939-59.781-4.751-95.805 2.867 29.307 35.553 52.122 75.817 62.751 120.832 1.413 6.083-0.348 12.472-4.731 16.937-2.152 2.195-4.824 3.809-7.767 4.694s-6.063 1.010-9.068 0.365c-139.551-30.126-343.142 122.716-345.19 124.273-5.98 4.526-14.152 4.936-20.521 1.004l-354.202-217.313c-2.659-1.626-4.855-3.907-6.379-6.625-1.524-2.717-2.324-5.782-2.324-8.899 0-3.116 0.8-6.18 2.324-8.899 1.524-2.717 3.72-5 6.379-6.625l120.751-74.076-66.13-40.55c-2.659-1.626-4.855-3.907-6.38-6.625-1.524-2.717-2.324-5.782-2.324-8.899s0.8-6.18 2.324-8.899c1.524-2.717 3.721-4.998 6.38-6.625l120.771-74.076-66.13-40.55c-2.659-1.626-4.855-3.907-6.38-6.625-1.524-2.717-2.324-5.782-2.324-8.899s0.8-6.18 2.324-8.899c1.524-2.717 3.721-5 6.38-6.625l354.181-217.272c2.908-1.782 6.185-2.683 9.523-2.683 1.966 0 3.953 0.328 5.857 0.963 13.169 4.465 322.683 111.657 371.917 320.061 1.413 6.062-0.369 12.452-4.751 16.916zM451.628 786.141c41.8-29.901 201.974-136.602 335.237-127.59-58.102-155.628-286.762-247.91-332.31-264.929l-321.412 197.161 318.484 195.359zM244.37 479.822l198.615-121.836c2.908-1.782 6.185-2.683 9.522-2.683 1.967 0 3.954 0.328 5.859 0.963 9.462 3.215 172.216 59.556 281.19 168.468 37.048-9.83 71.332-14.008 101.949-11.837-58.102-155.648-286.761-247.931-332.308-264.95l-321.434 197.161 56.607 34.714zM563.817 102.253l-321.413 197.161 56.607 34.734 198.614-121.836c2.908-1.782 6.186-2.683 9.524-2.683 1.966 0 3.953 0.328 5.857 0.963 9.462 3.215 172.216 59.556 281.19 168.468 37.048-9.81 71.352-14.049 101.949-11.837-58.122-155.668-286.781-247.951-332.329-264.97z" />
<glyph unicode="&#xe90a;" glyph-name="frame-2" d="M951.942 847.989c-152.032 80.832-445.647 83.2-684.096-169.296-2.468-2.511-4.037-5.768-4.463-9.263l-16.945-138.481c-10.464 15.456-21.184 36.721-23.456 61.12-0.736 13.056-18.24 19.441-27.2 9.856-1.647-1.632-161.6-164.495-68.16-382.432-34.928-65.44-58.752-134.319-63.6-204.64-0.976-20.719 29.952-23.439 31.936-2.191 4.368 63.599 25.792 126.592 57.648 186.976 35.616-8.818 72.157-13.352 108.849-13.504 37.199 0 78.639 5.12 117.775 20.928 3.098 1.244 5.728 3.425 7.524 6.24 1.796 2.813 2.666 6.118 2.49 9.452s-1.391 6.528-3.473 9.137c-2.083 2.609-4.929 4.5-8.141 5.412-0.512 0.128-39.776 11.68-56.207 39.951 34.016-12.015 102.208-23.759 170.223 8.401l177.888 144.207c12.625 9.681 3.040 31.281-12.687 28.224-0.48-0.079-37.201-5.664-74.016 21.856 38.447 0.753 95.727 5.952 131.855 28 41.152 25.12 128.832 119.505 189.088 213.376 24.049 37.472 43.936 75.008 54.464 107.904 1.121 3.493 1.009 7.265-0.319 10.685s-3.791 6.263-6.977 8.083zM881.99 744.837c-58.671-25.344-114.223-17.44-114.784-17.359-20.992 2.671-25.504-28-4.896-31.633 20.64-3.439 59.648-1.967 90.528 5.664-54.432-76.047-121.199-146.336-153.824-166.24-48.463-29.6-152-22.735-153.056-22.656-13.184 1.44-22.304-15.296-13.871-25.615 28-36.96 60.832-52.049 86.639-57.92l-144.367-117.073c-92.704-36.911-163.729 4.736-166.688 6.528-9.952 6.609-24.48-1.391-24.337-13.312-0.864-39.552 23.729-64.96 46.944-80.111-63.631-13.905-128.751-3.377-160.399 3.648 145.359 246.447 452.352 442.383 456.303 444.879 1.828 1.097 3.419 2.547 4.677 4.268 1.26 1.719 2.163 3.674 2.657 5.747s0.567 4.224 0.219 6.327c-0.349 2.103-1.115 4.114-2.253 5.917s-2.624 3.36-4.371 4.58-3.721 2.079-5.806 2.525c-2.084 0.448-4.236 0.474-6.33 0.077s-4.088-1.207-5.865-2.385c-16.241-10.24-311.808-199.040-461.088-445.376-49.808 142.511 14.912 253.856 50.319 300.399 15.153-44.576 47.232-73.551 48.896-75.040 9.12-8.591 25.361-2.464 26.513 10.016l20.736 169.44c63.215 63.744 125.344 109.041 184.576 140.768-21.489-64.271-14.193-106.383 6.063-105.135 10.72-0.241 18.801 11.055 15.2 21.199-0.111 0.384-11.759 37.824 23.025 105.376 198.368 86.432 356.911 24.912 400.928 3.904-9.632-25.28-24.576-53.184-42.289-81.408z" />
<glyph unicode="&#xe90b;" glyph-name="frame-3" d="M81.327 448l-42.584-42.577c-6.558-6.555-11.761-14.337-15.312-22.903s-5.379-17.747-5.381-27.020c-0.002-9.272 1.822-18.455 5.368-27.022s8.746-16.353 15.301-22.911c6.555-6.559 14.338-11.761 22.904-15.311s17.747-5.38 27.020-5.381c9.272-0.003 18.455 1.821 27.022 5.368 8.568 3.546 16.353 8.745 22.911 15.3l42.624 42.624 65.6-65.6-42.641-42.568c-13.238-13.242-20.672-31.2-20.669-49.924s7.444-36.678 20.686-49.916c13.242-13.238 31.199-20.672 49.923-20.669s36.68 7.443 49.917 20.685l42.575 42.577 65.6-65.6-42.575-42.609c-6.554-6.554-11.752-14.335-15.297-22.898s-5.37-17.742-5.368-27.011c0-9.268 1.827-18.445 5.375-27.008s8.748-16.342 15.302-22.895c6.555-6.552 14.336-11.75 22.899-15.296s17.741-5.371 27.009-5.37c9.268 0.001 18.446 1.828 27.008 5.376 8.563 3.548 16.343 8.748 22.895 15.302l42.577 42.583 42.607-42.592c6.504-6.774 14.294-12.182 22.913-15.907 8.621-3.726 17.897-5.693 27.287-5.789s18.705 1.684 27.398 5.234c8.694 3.551 16.593 8.8 23.232 15.441s11.887 14.54 15.436 23.233c3.549 8.695 5.327 18.010 5.23 27.4s-2.066 18.666-5.793 27.286c-3.726 8.62-9.135 16.408-15.91 22.911l-42.624 42.601 65.6 65.6 42.624-42.569c13.236-13.24 31.192-20.68 49.915-20.682s36.68 7.433 49.92 20.671c13.242 13.238 20.681 31.192 20.684 49.916s-7.433 36.68-20.671 49.92l-42.584 42.592 65.6 65.6 42.577-42.632c13.245-13.239 31.208-20.673 49.935-20.668s36.686 7.45 49.924 20.696c13.239 13.245 20.673 31.208 20.668 49.935s-7.45 36.686-20.696 49.924l-42.583 42.552 42.583 42.584c13.083 13.271 20.388 31.176 20.323 49.811-0.064 18.634-7.493 36.488-20.666 49.669s-31.023 20.62-49.658 20.694c-18.636 0.074-36.544-7.22-49.823-20.294l-42.632-42.632-65.6 65.6 42.624 42.568c13.236 13.239 20.673 31.195 20.672 49.917-0.003 18.723-7.441 36.677-20.681 49.915-13.239 13.236-31.195 20.673-49.917 20.672-18.721-0.003-36.677-7.441-49.914-20.681l-42.584-42.568-65.6 65.6 42.584 42.609c12.874 13.307 20.004 31.142 19.852 49.658-0.154 18.516-7.578 36.23-20.671 49.323s-30.808 20.515-49.325 20.667-36.349-6.979-49.656-19.856l-42.6-42.592-42.601 42.6c-13.295 12.934-31.149 20.113-49.697 19.984s-36.301-7.553-49.417-20.669c-13.116-13.116-20.541-30.868-20.669-49.417s7.050-36.402 19.985-49.698l42.615-42.616-65.6-65.6-42.615 42.56c-6.554 6.556-14.335 11.757-22.898 15.306s-17.742 5.377-27.012 5.379c-9.271 0.003-18.45-1.821-27.014-5.368-8.566-3.546-16.348-8.744-22.904-15.296-6.556-6.554-11.757-14.335-15.306-22.898s-5.377-17.742-5.379-27.013c-0.003-9.27 1.821-18.449 5.367-27.013 3.547-8.566 8.744-16.348 15.297-22.904l42.592-42.592-65.6-65.6-42.583 42.639c-13.278 13.076-31.186 20.372-49.821 20.3-18.635-0.074-36.485-7.511-49.659-20.691s-20.604-31.032-20.67-49.667c-0.066-18.636 7.238-36.541 20.318-49.814l42.584-42.575zM284.198 160c-8.008-7.862-18.796-12.243-30.017-12.193-11.223 0.049-21.971 4.526-29.91 12.457-7.94 7.932-12.426 18.676-12.486 29.898s4.312 22.015 12.166 30.030l42.615 42.6 60.209-60.224-42.577-42.568zM200.998 368l60.224 60.216 231.008-231.032-60.215-60.256-231.017 231.072zM412.166 448l-65.6-65.6-65.544 65.6 65.6 65.6 65.544-65.6zM512.015 679.016l65.6-65.6-65.6-65.6-65.6 65.6 65.6 65.6zM597.382 593.6l60.233-60.224-230.976-230.976-60.224 60.232 230.967 230.968zM611.855 448l65.6 65.6 65.6-65.6-65.6-65.6-65.6 65.6zM512.015 216.984l-65.6 65.6 65.6 65.6 65.6-65.6-65.6-65.6zM634.63 54.735c7.982-7.987 12.465-18.817 12.461-30.109s-4.493-22.12-12.48-30.102c-7.987-7.982-18.819-12.465-30.111-12.461s-22.12 4.493-30.102 12.48l-42.607 42.584 60.224 60.216 42.615-42.609zM449.615-5.457c-8.010-7.859-18.798-12.241-30.020-12.189-11.223 0.051-21.971 4.53-29.908 12.462s-12.424 18.678-12.481 29.9c-0.059 11.222 4.315 22.013 12.169 30.029l208.049 208 60.224-60.224-208.032-207.977zM800.063 160c-7.994-7.973-18.822-12.451-30.112-12.451s-22.118 4.477-30.112 12.451l-208 208 60.216 60.216 207.976-208c3.977-3.94 7.135-8.628 9.292-13.795 2.156-5.166 3.268-10.708 3.27-16.307s-1.102-11.141-3.254-16.311c-2.15-5.169-5.303-9.86-9.276-13.804zM965.495 385.6c3.958-3.955 7.098-8.652 9.242-13.821s3.246-10.708 3.249-16.305c0.001-5.596-1.098-11.137-3.238-16.307s-5.276-9.869-9.233-13.827c-3.955-3.958-8.652-7.099-13.82-9.242s-10.71-3.247-16.305-3.249c-5.596-0.003-11.137 1.098-16.307 3.238-5.171 2.139-9.869 5.276-13.828 9.231l-42.575 42.68 60.224 60.224 42.592-42.624zM905.254 570.639c3.959 3.956 8.657 7.092 13.828 9.233 5.17 2.14 10.711 3.24 16.307 3.238s11.136-1.106 16.305-3.249c5.169-2.144 9.865-5.284 13.82-9.242s7.092-8.657 9.233-13.827c2.14-5.171 3.24-10.712 3.238-16.307-0.003-5.596-1.106-11.137-3.249-16.306s-5.284-9.865-9.242-13.82l-208-208-60.256 60.264 208.015 208.015zM739.846 736c7.986 7.985 18.816 12.471 30.108 12.471 11.293 0 22.124-4.486 30.108-12.471s12.471-18.816 12.471-30.108c0-11.292-4.486-22.122-12.471-30.108l-42.607-42.552-60.209 60.224 42.6 42.545zM823.046 528l-60.224-60.224-231.023 231.040 60.256 60.256 230.991-231.072zM389.382 841.264c-7.982 7.987-12.463 18.818-12.46 30.11s4.493 22.12 12.48 30.102c7.987 7.982 18.819 12.464 30.111 12.46s22.12-4.493 30.102-12.48l42.6-42.592-60.2-60.216-42.633 42.616zM574.415 901.464c8.010 7.859 18.799 12.238 30.021 12.186s21.969-4.533 29.906-12.466c7.937-7.934 12.421-18.679 12.477-29.901 0.058-11.222-4.317-22.013-12.173-30.026l-208-208-60.232 60.184 208 208.024zM223.959 736c3.942 3.978 8.634 7.137 13.804 9.293s10.715 3.265 16.316 3.265c5.601 0 11.146-1.11 16.316-3.265s9.862-5.315 13.804-9.293l208-207.953-60.256-60.256-208 208c-3.973 3.944-7.126 8.634-9.277 13.801s-3.258 10.71-3.256 16.307 1.111 11.139 3.265 16.305c2.154 5.166 5.309 9.855 9.285 13.796zM326.815 533.368c-183.872-183.857-26.048-26.048-208-208-3.925-4.090-8.627-7.355-13.83-9.605s-10.802-3.438-16.47-3.497c-5.668-0.060-11.291 1.012-16.539 3.154-5.249 2.14-10.017 5.307-14.027 9.313s-7.18 8.773-9.325 14.020c-2.145 5.247-3.222 10.868-3.167 16.536s1.239 11.268 3.485 16.472c2.246 5.206 5.507 9.91 9.593 13.838l207.999 208 60.28-60.232zM58.543 570.656c7.995 7.969 18.824 12.443 30.112 12.443s22.117-4.474 30.112-12.443l42.584-42.656-60.223-60.216-42.592 42.616c-7.964 8.005-12.434 18.838-12.432 30.13s4.474 22.124 12.44 30.126z" />
<glyph unicode="&#xe90c;" glyph-name="percent" d="M384 544c-6.329 0-12.516 1.877-17.778 5.393s-9.364 8.514-11.786 14.361c-2.422 5.848-3.056 12.281-1.821 18.489s4.282 11.909 8.758 16.385c4.475 4.475 10.177 7.523 16.385 8.758s12.641 0.601 18.489-1.821c5.847-2.422 10.845-6.524 14.361-11.786s5.393-11.449 5.393-17.778c0-8.487-3.372-16.626-9.373-22.627s-14.14-9.373-22.627-9.373zM640 352c-6.328 0-12.518-1.879-17.777-5.391-5.263-3.517-9.364-8.515-11.786-14.362s-3.057-12.283-1.823-18.488c1.234-6.211 4.28-11.909 8.76-16.384 4.475-4.48 10.173-7.526 16.384-8.76 6.205-1.234 12.641-0.599 18.488 1.823s10.844 6.523 14.362 11.786c3.512 5.258 5.391 11.448 5.391 17.777 0 8.489-3.369 16.625-9.375 22.625-6.001 6.006-14.136 9.375-22.625 9.375zM960 448c0-41.759-30.039-73.078-56.561-100.721-15.078-15.759-30.679-32-36.562-46.28-5.437-13.082-5.76-34.76-6.077-55.762-0.599-39.040-1.239-83.277-32-114.038s-74.998-31.401-114.038-32c-21.002-0.317-42.68-0.64-55.762-6.077-14.28-5.883-30.52-21.484-46.28-36.562-27.643-26.522-58.962-56.561-100.721-56.561s-73.080 30.039-100.72 56.561c-15.76 15.078-32 30.679-46.28 36.562-13.080 5.437-34.76 5.76-55.76 6.077-39.040 0.599-83.28 1.239-114.040 32s-31.4 74.998-32 114.038c-0.32 21.002-0.64 42.68-6.080 55.762-5.88 14.28-21.48 30.52-36.56 46.28-26.52 27.643-56.56 58.962-56.56 100.721s30.040 73.080 56.56 100.72c15.080 15.76 30.68 32 36.56 46.28 5.44 13.080 5.76 34.76 6.080 55.76 0.6 39.040 1.24 83.28 32 114.040s75 31.4 114.040 32c21 0.32 42.68 0.64 55.76 6.080 14.28 5.88 30.52 21.48 46.28 36.56 27.64 26.52 58.96 56.56 100.72 56.56s73.078-30.040 100.721-56.56c15.759-15.080 32-30.68 46.28-36.56 13.082-5.44 34.76-5.76 55.762-6.080 39.040-0.6 83.277-1.24 114.038-32s31.401-75 32-114.040c0.317-21 0.64-42.68 6.077-55.76 5.883-14.28 21.484-30.52 36.562-46.28 26.522-27.64 56.561-58.96 56.561-100.72zM384 480c18.987 0 37.548 5.63 53.335 16.179s28.092 25.542 35.358 43.084c7.266 17.542 9.167 36.844 5.463 55.466s-12.847 35.728-26.273 49.154c-13.426 13.426-30.532 22.569-49.154 26.273s-37.924 1.803-55.466-5.463c-17.542-7.266-32.535-19.57-43.084-35.358s-16.179-34.348-16.179-53.335c0-25.461 10.114-49.879 28.118-67.882s42.422-28.118 67.882-28.118zM694.641 585.36c2.975 2.973 5.33 6.503 6.938 10.387 1.613 3.885 2.437 8.048 2.437 12.253s-0.824 8.368-2.437 12.253c-1.608 3.885-3.963 7.414-6.938 10.387s-6.502 5.331-10.388 6.941c-3.886 1.609-8.049 2.437-12.252 2.437s-8.366-0.828-12.252-2.437c-3.886-1.609-7.414-3.967-10.388-6.941l-319.999-319.999c-2.973-2.975-5.331-6.502-6.941-10.388s-2.437-8.049-2.437-12.252c0-4.204 0.828-8.366 2.437-12.252s3.967-7.414 6.941-10.388c6.005-6.006 14.149-9.375 22.64-9.375 4.205 0 8.368 0.824 12.253 2.437 3.885 1.608 7.414 3.963 10.387 6.938l320.001 320.001zM736 320c0 18.985-5.632 37.55-16.179 53.335s-25.544 28.093-43.085 35.359c-17.541 7.265-36.844 9.165-55.465 5.463-18.621-3.707-35.727-12.851-49.152-26.276s-22.569-30.531-26.276-49.152c-3.702-18.621-1.802-37.924 5.463-55.465s19.574-32.538 35.359-43.085c15.785-10.547 34.35-16.179 53.335-16.179 25.462 0 49.879 10.112 67.881 28.119 18.007 18.002 28.119 42.419 28.119 67.881z" />
<glyph unicode="&#xe90d;" glyph-name="eye-hide" horiz-adv-x="1075" d="M724.362 386.545c8.018 19.645 12.088 40.463 12.006 61.44 0 46.576-20.183 91.244-56.115 124.178-35.927 32.934-84.654 51.437-135.465 51.437-22.605-0.025-45.018-3.752-66.188-11.008l44.961-42.496c6.835 1.002 13.747 1.516 20.669 1.536 35.927 0.069 70.42-12.896 95.959-36.063 25.533-23.167 40.028-54.654 40.325-87.585-0.026-6.344-0.584-12.677-1.674-18.944l45.522-42.496zM978.55 460c-94.116 159.488-259.164 256.001-441.81 256.001-49.73-0.108-99.124-7.452-146.34-21.761l44.963-41.472c33.118 7.846 67.171 11.888 101.377 12.033 157.23 0 300.216-80.384 385.398-215.808-31.247-50.242-72.668-94.555-122.045-130.559l39.66-36.352c57.139 42.255 104.596 94.459 139.633 153.6l7.265 12.288-8.1 12.030zM156.939 760.856l124.556-114.176c-78.729-46.467-143.074-110.74-186.833-186.624l-7.261-12.032 7.261-12.286c94.115-159.488 259.165-256 441.807-256 71.291 0.010 141.655 14.802 205.824 43.264l139.638-128 48.876 38.4-726.111 665.598-47.756-38.144zM429.23 511.256l185.718-170.238c-20.987-11.909-45.143-18.284-69.821-18.432-17.93 0-35.684 3.246-52.24 9.559-16.556 6.318-31.586 15.57-44.227 27.228s-22.641 25.492-29.427 40.704c-6.785 15.217-10.222 31.508-10.111 47.947 0.314 22.36 7.266 44.219 20.107 63.232zM388.735 548.376c-26.128-33.777-38.374-74.939-34.571-116.197 3.804-41.262 23.412-79.954 55.352-109.235 31.941-29.276 74.153-47.252 119.165-50.739 45.010-3.487 89.912 7.741 126.761 31.693l44.682-40.96c-51.727-20.27-107.397-30.72-163.656-30.72-157.229 0-300.216 80.384-385.394 215.806 40.877 66.35 99.748 121.902 170.915 161.28l66.746-60.928z" />
<glyph unicode="&#xe90e;" glyph-name="squaresfour" d="M416 800h-192c-16.974 0-33.253-6.743-45.255-18.745s-18.745-28.281-18.745-45.255v-192c0-16.973 6.743-33.254 18.745-45.257s28.281-18.743 45.255-18.743h192c16.973 0 33.254 6.741 45.257 18.743s18.743 28.284 18.743 45.257v192c0 16.974-6.741 33.253-18.743 45.255s-28.284 18.745-45.257 18.745zM416 544h-192v192h192v-192zM800 800h-192c-16.973 0-33.254-6.743-45.257-18.745s-18.743-28.281-18.743-45.255v-192c0-16.973 6.741-33.254 18.743-45.257s28.284-18.743 45.257-18.743h192c16.973 0 33.254 6.741 45.257 18.743s18.743 28.284 18.743 45.257v192c0 16.974-6.741 33.253-18.743 45.255s-28.284 18.745-45.257 18.745zM800 544h-192v192h192v-192zM416 416h-192c-16.974 0-33.253-6.741-45.255-18.743s-18.745-28.284-18.745-45.257v-192c0-16.973 6.743-33.254 18.745-45.257s28.281-18.743 45.255-18.743h192c16.973 0 33.254 6.741 45.257 18.743s18.743 28.284 18.743 45.257v192c0 16.973-6.741 33.254-18.743 45.257s-28.284 18.743-45.257 18.743zM416 160h-192v192h192v-192zM800 416h-192c-16.973 0-33.254-6.741-45.257-18.743s-18.743-28.284-18.743-45.257v-192c0-16.973 6.741-33.254 18.743-45.257s28.284-18.743 45.257-18.743h192c16.973 0 33.254 6.741 45.257 18.743s18.743 28.284 18.743 45.257v192c0 16.973-6.741 33.254-18.743 45.257s-28.284 18.743-45.257 18.743zM800 160h-192v192h192v-192z" />
<glyph unicode="&#xe90f;" glyph-name="share" d="M704.133 319.974c-21.345 0.005-42.476-4.27-62.141-12.58-19.661-8.305-37.458-20.475-52.337-35.784l-184.4 118.523c14.505 37.192 14.505 78.482 0 115.678l184.4 118.52c27.699-28.372 64.942-45.45 104.52-47.921 39.572-2.471 78.653 9.841 109.665 34.547s51.748 60.049 58.184 99.174c6.436 39.126-1.889 79.246-23.352 112.585s-54.543 57.519-92.826 67.853c-38.282 10.335-79.037 6.087-114.36-11.92-35.328-18.007-62.71-48.489-76.841-85.538-14.126-37.048-13.993-78.023 0.369-114.98l-184.398-118.52c-22.205 22.797-50.705 38.454-81.854 44.97s-63.536 3.595-93.017-8.391c-29.481-11.985-54.718-32.489-72.486-58.892s-27.258-57.504-27.258-89.326c0-31.826 9.49-62.93 27.258-89.329 17.767-26.404 43.004-46.909 72.486-58.895s61.866-14.904 93.017-8.387c31.15 6.513 59.649 22.17 81.854 44.969l184.398-118.523c-12.349-31.857-14.177-66.836-5.217-99.814 8.965-32.973 28.252-62.213 55.040-83.436 26.783-21.217 59.658-33.306 93.809-34.493 34.15-1.183 67.789 8.596 95.98 27.909s49.454 47.145 60.687 79.421c11.228 32.271 11.827 67.297 1.71 99.937-10.112 32.64-30.413 61.184-57.923 81.454-27.515 20.27-60.79 31.196-94.966 31.186zM704.133 831.972c18.99 0 37.55-5.63 53.335-16.179 15.79-10.549 28.093-25.542 35.359-43.084s9.165-36.844 5.463-55.466c-3.702-18.622-12.846-35.728-26.271-49.154-13.43-13.426-30.536-22.569-49.157-26.273s-37.924-1.803-55.465 5.463c-17.541 7.266-32.532 19.57-43.085 35.358-10.547 15.787-16.179 34.348-16.179 53.335 0 25.461 10.117 49.879 28.119 67.882s42.419 28.118 67.881 28.118zM256.135 351.974c-18.987 0-37.548 5.627-53.335 16.174-15.787 10.552-28.091 25.544-35.357 43.085s-9.167 36.845-5.463 55.468c3.704 18.622 12.847 35.727 26.273 49.154s30.532 22.569 49.154 26.273c18.622 3.704 37.925 1.803 55.466-5.463s32.535-19.571 43.083-35.358c10.549-15.788 16.179-34.348 16.179-53.332 0-25.462-10.115-49.879-28.118-67.886-18.003-18.002-42.421-28.114-67.882-28.114zM704.133 63.974c-18.985 0-37.545 5.627-53.335 16.174-15.785 10.552-28.088 25.544-35.354 43.085-7.27 17.541-9.17 36.844-5.463 55.465 3.702 18.627 12.846 35.732 26.271 49.157s30.531 22.569 49.152 26.271c18.621 3.707 37.924 1.802 55.47-5.463 17.541-7.265 32.532-19.569 43.080-35.359 10.552-15.785 16.179-34.345 16.179-53.33 0-25.462-10.112-49.879-28.114-67.886-18.007-18.002-42.424-28.114-67.886-28.114z" />
<glyph unicode="&#xe910;" glyph-name="question" d="M560 240c0-9.492-2.816-18.775-8.090-26.665-5.274-7.895-12.769-14.049-21.54-17.679-8.771-3.635-18.424-4.588-27.735-2.734s-17.864 6.426-24.577 13.138c-6.713 6.712-11.284 15.263-13.136 24.576s-0.902 18.964 2.732 27.735c3.633 8.771 9.785 16.266 17.679 21.54s17.174 8.090 26.667 8.090c12.728 0 24.94-5.059 33.94-14.060s14.060-21.212 14.060-33.94zM512 672c-88.24 0-160-64.6-160-144v-16c0-8.487 3.372-16.626 9.373-22.627s14.14-9.373 22.627-9.373c8.487 0 16.627 3.372 22.628 9.373s9.372 14.14 9.372 22.627v16c0 44 43.080 80 96 80s96-36 96-80c0-44-43.080-80-96-80-8.487 0-16.626-3.369-22.627-9.375-6.001-6.001-9.373-14.136-9.373-22.625v-32c0-8.489 3.372-16.625 9.373-22.625 6.001-6.006 14.14-9.375 22.627-9.375 8.489 0 16.625 3.369 22.625 9.375 6.006 6.001 9.375 14.136 9.375 22.625v2.877c72.96 13.404 128 71.603 128 141.123 0 79.4-71.762 144-160 144zM928 448c0-82.278-24.397-162.708-70.108-231.117-45.711-68.413-110.679-121.733-186.696-153.216-76.012-31.488-159.657-39.726-240.353-23.675s-154.821 55.675-212.999 113.853c-58.179 58.179-97.799 132.301-113.85 212.997s-7.813 164.339 23.673 240.353c31.486 76.014 84.806 140.984 153.217 186.695s148.84 70.109 231.117 70.109c110.295-0.116 216.038-43.982 294.026-121.972 77.993-77.99 121.856-183.733 121.974-294.028zM864 448c0 69.619-20.644 137.675-59.32 195.561-38.682 57.886-93.655 103.003-157.972 129.645-64.323 26.642-135.097 33.613-203.379 20.031s-131.002-47.107-180.23-96.335c-49.228-49.228-82.753-111.948-96.335-180.23s-6.611-139.057 20.031-203.374c26.642-64.323 71.759-119.296 129.645-157.978 57.886-38.676 125.942-59.32 195.56-59.32 93.322 0.108 182.794 37.228 248.786 103.214 65.987 65.992 103.107 155.464 103.214 248.786z" />
<glyph unicode="&#xe911;" glyph-name="truck" d="M1021.681 492l-56.003 140c-4.746 11.845-12.948 21.991-23.532 29.123s-23.066 10.921-35.825 10.877h-138.322v32c0 8.487-3.369 16.626-9.375 22.627-6.001 6.001-14.136 9.373-22.625 9.373h-608c-16.974 0-33.252-6.743-45.255-18.745s-18.745-28.281-18.745-45.255v-448c0-16.973 6.743-33.254 18.745-45.256s28.281-18.744 45.255-18.744h68c7.049-27.535 23.062-51.937 45.514-69.366s50.064-26.885 78.486-26.885c28.422 0 56.035 9.457 78.486 26.885s38.465 41.83 45.514 69.366h199.998c7.050-27.535 23.066-51.937 45.517-69.366s50.063-26.885 78.484-26.885c28.421 0 56.033 9.457 78.484 26.885s38.467 41.83 45.517 69.366h67.999c16.973 0 33.254 6.743 45.256 18.744s18.744 28.283 18.744 45.256v256c0.010 4.112-0.778 8.188-2.319 12zM768 608h138.322l38.4-96h-176.722v96zM128 672h576v-256h-576v256zM320 128c-12.658 0-25.032 3.753-35.556 10.788-10.525 7.030-18.728 17.024-23.572 28.718-4.844 11.699-6.111 24.566-3.642 36.982 2.469 12.411 8.565 23.818 17.516 32.768s20.354 15.048 32.769 17.516c12.414 2.468 25.283 1.203 36.977-3.64 11.695-4.849 21.69-13.051 28.723-23.572 7.032-10.527 10.786-22.902 10.786-35.558 0-16.973-6.743-33.254-18.745-45.256s-28.281-18.744-45.255-18.744zM643.999 224h-199.998c-7.050 27.535-23.063 51.937-45.514 69.366s-50.064 26.885-78.486 26.885c-28.422 0-56.034-9.457-78.486-26.885s-38.465-41.83-45.514-69.366h-68v128h576v-49.239c-14.715-8.504-27.597-19.845-37.893-33.367-10.301-13.522-17.812-28.948-22.108-45.394zM768 128c-12.657 0-25.032 3.753-35.558 10.788-10.522 7.030-18.724 17.024-23.567 28.718-4.849 11.699-6.113 24.566-3.645 36.982 2.473 12.411 8.566 23.818 17.516 32.768s20.357 15.048 32.768 17.516c12.416 2.468 25.283 1.203 36.982-3.64 11.694-4.849 21.688-13.051 28.718-23.572 7.035-10.527 10.788-22.902 10.788-35.558 0-16.973-6.743-33.254-18.744-45.256s-28.283-18.744-45.256-18.744zM960 224h-67.999c-7.137 27.469-23.178 51.789-45.619 69.161-22.436 17.372-50.002 26.813-78.382 26.839v128h192v-224z" />
<glyph unicode="&#xe912;" glyph-name="arrowclockwise" d="M960.020 736.036v-192c0-8.487-3.369-16.626-9.37-22.627-6.006-6.001-14.141-9.373-22.63-9.373h-192c-8.484 0-16.625 3.372-22.625 9.373s-9.375 14.14-9.375 22.627c0 8.487 3.374 16.626 9.375 22.627s14.141 9.373 22.625 9.373h109.599l-107.356 98.4c-44.477 44.461-101.069 74.83-162.708 87.314-61.635 12.485-125.585 6.531-183.858-17.118s-108.285-63.943-143.79-115.85c-35.505-51.907-54.928-113.125-55.843-176.007s16.719-124.639 50.699-177.559c33.98-52.915 82.799-94.648 140.359-119.982s121.309-33.147 183.284-22.461c61.972 10.685 119.424 39.398 165.176 82.545 6.17 5.837 14.403 8.98 22.892 8.745s16.532-3.835 22.369-10.004c5.832-6.17 8.98-14.403 8.745-22.892-0.241-8.489-3.835-16.532-10.004-22.369-71.142-67.471-165.514-104.98-263.562-104.76h-5.279c-62.89 0.86-124.606 17.157-179.724 47.457s-101.948 73.672-136.377 126.31c-34.429 52.634-55.401 112.922-61.074 175.565-5.673 62.638 4.128 125.712 28.54 183.677s62.69 109.047 111.467 148.754c48.778 39.708 106.562 66.826 168.274 78.972s125.466 8.947 185.651-9.315c60.186-18.263 114.964-51.030 159.524-95.421l112.998-103.2v119.2c0 8.487 3.374 16.626 9.375 22.627s14.141 9.373 22.625 9.373c8.489 0 16.625-3.372 22.63-9.373 6.001-6.001 9.37-14.14 9.37-22.627z" />
<glyph unicode="&#xe913;" glyph-name="time" d="M512 800c-75.948 0-150.19-22.521-213.339-64.716s-112.367-102.167-141.431-172.334c-29.064-70.167-36.669-147.376-21.852-221.866 14.817-74.486 51.389-142.909 105.093-196.613s122.126-90.276 196.615-105.093c74.488-14.817 151.699-7.214 221.863 21.852 70.17 29.066 130.14 78.285 172.334 141.43 42.194 63.15 64.717 137.39 64.717 213.34-0.118 101.808-40.612 199.412-112.599 271.4s-169.595 112.483-271.401 112.6zM512 96c-63.29 0-125.158 18.77-177.782 53.929-52.624 35.164-93.639 85.14-117.859 143.611-24.22 58.476-30.557 122.813-18.21 184.889 12.347 62.074 42.824 119.093 87.577 163.846s101.771 75.23 163.845 87.577c62.074 12.347 126.413 6.010 184.889-18.21 58.47-24.22 108.447-65.235 143.611-117.859 35.159-52.623 53.929-114.492 53.929-177.782-0.097-84.838-33.838-166.18-93.829-226.171s-141.332-93.732-226.171-93.829zM694.641 598.64c2.975-2.972 5.335-6.501 6.948-10.386 1.608-3.885 2.437-8.049 2.437-12.254s-0.829-8.369-2.437-12.254c-1.613-3.885-3.973-7.414-6.948-10.386l-160-160.001c-2.975-2.975-6.502-5.33-10.388-6.938-3.886-1.613-8.049-2.437-12.252-2.437-4.205 0-8.368 0.824-12.253 2.437-3.885 1.608-7.414 3.963-10.387 6.938s-5.332 6.502-6.941 10.388c-1.609 3.886-2.437 8.049-2.437 12.252s0.828 8.366 2.437 12.252c1.609 3.886 3.967 7.414 6.941 10.388l159.999 159.999c2.975 2.975 6.502 5.336 10.388 6.946 3.881 1.61 8.049 2.439 12.252 2.439s8.371-0.829 12.252-2.439c3.886-1.61 7.414-3.971 10.388-6.946zM384 896c0 8.487 3.372 16.626 9.373 22.627s14.14 9.373 22.627 9.373h192c8.489 0 16.625-3.371 22.625-9.373 6.006-6.001 9.375-14.141 9.375-22.627s-3.369-16.626-9.375-22.627c-6.001-6.001-14.136-9.373-22.625-9.373h-192c-8.487 0-16.626 3.372-22.627 9.373s-9.373 14.14-9.373 22.627z" />
<glyph unicode="&#xe914;" glyph-name="check" d="M41.79 423.089l239.733-308.228c5.964-7.666 13.489-13.976 22.077-18.511s18.043-7.193 27.737-7.795c9.693-0.603 19.405 0.863 28.488 4.3s17.333 8.767 24.199 15.636l582.205 582.208c6.546 6.318 11.76 13.876 15.352 22.233s5.482 17.344 5.561 26.439c0.079 9.095-1.654 18.114-5.104 26.532-3.442 8.418-8.523 16.065-14.958 22.496-6.428 6.431-14.076 11.517-22.496 14.961s-17.44 5.177-26.529 5.098c-9.098-0.079-18.085-1.969-26.443-5.558s-15.911-8.808-22.229-15.35l-527.346-527.343-192.095 246.993c-11.163 14.329-27.556 23.643-45.58 25.897s-36.205-2.737-50.553-13.876c-14.329-11.163-23.643-27.556-25.896-45.58s2.737-36.205 13.875-50.553z" />
<glyph unicode="&#xe915;" glyph-name="categories" horiz-adv-x="1280" d="M164.8 755.2h921.6c28.277 0 51.2-22.923 51.2-51.2s-22.923-51.2-51.2-51.2h-921.6c-28.277 0-51.2 22.923-51.2 51.2s22.923 51.2 51.2 51.2zM153.6 499.2h409.6c28.277 0 51.2-22.923 51.2-51.2s-22.923-51.2-51.2-51.2h-409.6c-28.277 0-51.2 22.923-51.2 51.2s22.923 51.2 51.2 51.2zM164.8 243.2h716.8c28.277 0 51.2-22.923 51.2-51.2s-22.923-51.2-51.2-51.2h-716.8c-28.277 0-51.2 22.923-51.2 51.2s22.923 51.2 51.2 51.2z" />
<glyph unicode="&#xe916;" glyph-name="checkcircle" d="M694.639 566.64c2.978-2.972 5.338-6.501 6.946-10.386 1.613-3.884 2.441-8.049 2.441-12.254s-0.828-8.369-2.441-12.254c-1.609-3.887-3.968-7.415-6.946-10.385l-224-224c-2.97-2.978-6.498-5.338-10.385-6.946-3.883-1.613-8.047-2.441-12.254-2.441s-8.371 0.828-12.254 2.441c-3.883 1.609-7.415 3.968-10.386 6.946l-96 96c-6.004 6.003-9.378 14.148-9.378 22.639s3.373 16.636 9.378 22.639c6.004 6.007 14.148 9.378 22.64 9.378s16.636-3.371 22.64-9.378l73.36-73.399 201.361 201.4c2.97 2.976 6.502 5.336 10.385 6.946s8.047 2.439 12.254 2.439c4.207 0 8.371-0.829 12.254-2.439 3.887-1.61 7.415-3.971 10.385-6.946zM928 448c0-82.278-24.397-162.705-70.11-231.117-45.709-68.412-110.682-121.732-186.692-153.216-76.015-31.488-159.659-39.727-240.354-23.676-80.697 16.051-154.821 55.671-213 113.852s-97.799 132.305-113.85 213.001c-16.052 80.695-7.814 164.339 23.673 240.352s84.806 140.984 153.216 186.695c68.411 45.711 148.839 70.109 231.117 70.109 110.293-0.116 216.038-43.983 294.029-121.972s121.856-183.734 121.971-294.028zM864 448c0 69.619-20.642 137.675-59.324 195.561-38.677 57.886-93.653 103.003-157.973 129.645-64.316 26.642-135.091 33.613-203.375 20.031-68.281-13.582-131.001-47.107-180.23-96.335s-82.753-111.948-96.335-180.23c-13.582-68.279-6.611-139.055 20.031-203.375s71.759-119.296 129.645-157.973c57.886-38.677 125.941-59.324 195.561-59.324 93.325 0.107 182.797 37.227 248.785 103.215s103.108 155.46 103.215 248.785z" />
<glyph unicode="&#xe917;" glyph-name="filter" d="M922.4 761.879c-4.928 11.379-13.088 21.060-23.469 27.837-10.387 6.778-22.534 10.353-34.931 10.282h-704.001c-12.387-0.024-24.5-3.643-34.871-10.416s-18.553-16.411-23.554-27.743c-5.002-11.332-6.607-23.872-4.621-36.099s7.476-23.615 15.807-32.782l0.32-0.36 270.92-289.28v-307.319c-0.003-11.584 3.139-22.95 9.088-32.89s14.485-18.074 24.696-23.546c10.211-5.466 21.715-8.064 33.284-7.507s22.772 4.237 32.412 10.662l128 85.357c8.774 5.85 15.969 13.766 20.945 23.066 4.975 9.293 7.576 19.674 7.575 30.214v221.962l271.278 289.64c8.422 9.126 13.965 20.529 15.942 32.785s0.301 24.825-4.819 36.135zM584.719 437.679c-5.535-5.869-8.65-13.612-8.72-21.68v-234.642l-128-85.357v319.999c0.003 8.126-3.086 15.948-8.64 21.88l-279.36 298.12h704.001l-279.281-298.32z" />
<glyph unicode="&#xe918;" glyph-name="quote-1" d="M490.821 881.231v-299.871c0-104.182-18.536-199.109-56.442-284.079-36.256-85.055-97.804-170.803-182.666-257.398l-24.611-25.114-210.738 167.877 30.241 30.846c63.428 64.695 105.561 125.381 128.88 181.984h-175.485v485.754h490.821zM228.945 434.446c-3.019-12.9-6.908-25.891-11.668-38.969-21.281-58.484-59.958-118.752-116.030-180.805-8.535-9.446-17.474-18.934-26.815-28.461l149.448-119.052c82.745 84.433 141.005 166.335 174.777 245.703 35.464 79.368 53.195 168.867 53.195 268.499v260.901h-412.882v-407.815h189.975zM1020.221 881.231v-299.871c0-104.184-18.536-199.111-56.442-284.079-36.257-85.057-97.804-170.803-182.666-257.398l-24.611-25.114-210.737 167.877 30.241 30.846c63.427 64.695 105.561 125.381 128.88 181.984h-175.486v485.754h490.821zM758.347 434.446c-3.021-12.9-6.91-25.891-11.668-38.969-21.281-58.484-59.959-118.752-116.031-180.805-8.537-9.446-17.475-18.934-26.817-28.461l149.449-119.052c82.745 84.433 141.005 166.335 174.779 245.703 35.462 79.368 53.193 168.867 53.193 268.499v260.901h-412.883v-407.815h189.978z" />
<glyph unicode="&#xe919;" glyph-name="frame-4" d="M191.764 636.032h93.902c3.682 0 7.212 1.464 9.815 4.066 2.604 2.604 4.066 6.133 4.066 9.815s-1.462 7.212-4.066 9.815c-2.604 2.604-6.133 4.066-9.815 4.066h-93.902c-3.682 0-7.213-1.462-9.815-4.066-2.604-2.604-4.066-6.133-4.066-9.815s1.462-7.212 4.066-9.815c2.602-2.602 6.133-4.066 9.815-4.066zM749.713 636.032h93.904c3.68 0 7.212 1.464 9.815 4.066 2.602 2.604 4.064 6.133 4.064 9.815s-1.462 7.212-4.064 9.815c-2.604 2.604-6.135 4.066-9.815 4.066h-93.904c-3.682 0-7.212-1.462-9.815-4.066-2.602-2.604-4.066-6.133-4.066-9.815s1.464-7.212 4.066-9.815c2.604-2.602 6.133-4.066 9.815-4.066zM1015.796 800.706h-996.239c-3.681 0-7.212-1.462-9.815-4.066s-4.066-6.133-4.066-9.815v-65.541c0-3.68 1.462-7.212 4.066-9.815 2.603-2.602 6.134-4.064 9.815-4.064h30.316v-134.251c0.012-10.427 4.16-20.423 11.533-27.796s17.369-11.52 27.796-11.532h11.183v-416.788c0-3.682 1.463-7.212 4.066-9.815s6.134-4.066 9.815-4.066h58.813c3.444 0 6.764 1.282 9.317 3.593 2.552 2.313 4.155 5.49 4.494 8.918l41.499 418.158h159.809c10.427 0.012 20.423 4.159 27.796 11.532 7.374 7.373 11.522 17.369 11.534 27.796v134.251h180.296v-134.246c0.012-10.427 4.161-20.423 11.534-27.796s17.369-11.52 27.796-11.532h159.813l41.499-418.158c0.34-3.426 1.941-6.605 4.494-8.918s5.873-3.592 9.317-3.593h58.809c3.68 0 7.212 1.462 9.815 4.066 2.602 2.604 4.064 6.133 4.064 9.815v416.783h11.189c10.427 0.012 20.423 4.159 27.796 11.532s11.52 17.369 11.532 27.796v134.251h30.316c3.682 0 7.212 1.462 9.815 4.064 2.602 2.604 4.066 6.135 4.066 9.815v65.541c0 3.682-1.464 7.212-4.066 9.815-2.604 2.604-6.133 4.066-9.815 4.066zM160.507 130.924h-32.361v402.902h72.342l-39.981-402.902zM399.765 573.158c-0.003-3.066-1.223-6.007-3.391-8.175s-5.109-3.388-8.177-3.391h-298.996c-3.067 0.003-6.008 1.223-8.176 3.391s-3.388 5.109-3.391 8.175v134.246h322.131v-134.246zM907.207 130.918h-32.36l-39.981 402.912h72.341v-402.912zM957.719 573.158c-0.002-3.066-1.221-6.007-3.39-8.175s-5.111-3.388-8.177-3.391h-299c-3.067 0.003-6.008 1.223-8.177 3.391s-3.388 5.109-3.39 8.175v134.246h322.134v-134.246zM1001.915 735.166h-968.477v37.778h968.477v-37.778z" />
<glyph unicode="&#xe91a;" glyph-name="frame-5" d="M799.508 764.056c1.55 6.203-3.102 13.957-9.305 17.057-117.85 55.825-224.846 13.957-255.86-128.705-6.203-7.754-12.405-17.057-15.506-26.362v111.649c102.343 46.52 116.299 133.357 58.925 215.542-4.653 6.203-10.856 7.753-18.608 6.203-97.693-35.665-133.358-117.851-72.882-215.542v-195.385c-1.551 1.551-3.101 4.653-4.652 6.203-1.551 21.71-13.957 105.446-72.882 145.763-66.679 44.969-162.821 12.405-167.472 10.854-6.203-1.551-10.854-9.303-10.854-15.506 0-4.652 7.754-105.446 72.882-150.415 43.418-29.463 105.445-27.912 156.616-13.957 13.957-18.608 23.261-41.868 29.463-68.229-91.488-3.102-231.049-20.159-231.049-74.433 0-1.551 10.854-94.59 12.405-96.142 0-15.506 12.405-27.912 31.014-37.216l29.463-268.265c3.101-68.229 358.204-68.229 361.305 0l29.464 268.265c18.607 9.305 31.012 21.71 31.012 37.216 0 1.551 12.405 94.59 12.405 96.142 0 55.825-151.965 72.882-241.903 74.433 0 71.331 3.101 125.604 27.912 162.819 136.459-51.171 226.397 12.405 248.108 138.010zM765.392 757.853c-27.912-108.546-94.59-138.010-190.732-106.996 24.811 21.71 62.027 35.665 116.301 41.868 7.752 1.551 13.955 9.305 13.955 17.057 0 7.754-9.303 13.957-17.057 13.957-46.52-6.203-82.185-17.057-108.547-32.563 32.565 72.88 88.389 102.343 186.080 66.677zM559.154 923.775c38.766-69.78 23.26-116.3-40.317-151.966 3.101 23.26 17.057 48.071 41.868 77.533 6.203 6.203 4.652 17.057-1.551 21.709s-17.057 4.652-21.71-1.551c-20.158-24.811-34.114-48.071-41.868-69.781-17.057 49.622-6.203 91.49 63.578 124.054zM323.451 571.774c-41.868 27.912-54.274 88.388-58.925 114.748 24.811 6.203 86.838 17.057 127.155-10.854 27.912-18.608 41.868-51.171 51.171-79.084-23.26 18.608-51.171 34.116-83.736 46.521-7.752 3.101-17.057-1.551-20.158-9.305s1.55-17.057 9.303-20.158c38.767-13.957 68.23-32.565 91.49-54.274-29.463-7.754-80.635-12.405-116.301 12.405zM726.626 294.204c-3.102-12.405-71.331-40.317-210.891-40.317-120.952 0-206.238 24.811-210.891 40.317 0 1.551-6.203 51.171-6.203 52.722 54.274-26.36 155.067-34.114 217.094-34.114s164.372 7.754 217.094 34.114l-6.203-51.171v-1.551zM664.599-9.726c-9.303-7.754-60.476-23.26-150.415-23.26-88.388 0-141.11 15.506-150.415 23.26l-27.912 252.759c52.722-15.508 125.604-20.159 178.327-20.159s125.604 4.652 178.327 20.159l-27.912-252.759zM737.48 388.795c-1.551-12.405-74.433-43.419-223.297-43.419s-220.195 31.014-223.295 43.419c3.101 13.957 77.533 40.317 204.687 43.419 1.551-13.957 1.551-29.463 0-46.52 0-9.305 6.203-15.508 13.957-17.057h1.551c7.754 0 15.506 6.201 15.506 13.955 1.551 17.057 0 32.565 0 48.071 131.807 0 207.789-27.912 210.891-41.868z" />
<glyph unicode="&#xe91b;" glyph-name="frame-6" d="M992.976 241.029h-99.608l39.874 183.389c0.422 1.974 0.398 4.016-0.068 5.98-0.465 1.962-1.361 3.798-2.625 5.373-1.262 1.574-2.858 2.848-4.674 3.729s-3.804 1.348-5.822 1.364h-26.376c50.424 45.149 75.559 112.795 65.319 181.838-0.521 3.572-2.412 6.799-5.275 8.999-1.423 1.078-3.052 1.855-4.786 2.281-1.735 0.428-3.537 0.495-5.299 0.2-35.685-5.275-68.731-19.86-97.125-42.356-9.154 34.754-27.151 66.25-52.906 92.005-2.483 2.637-6.052 4.034-9.62 4.034s-7.138-1.397-9.62-4.034c-25.755-25.91-43.753-57.406-52.906-92.005-28.055 22.442-61.577 37.009-97.125 42.201-3.414 0.62-7.138-0.31-10.085-2.482-2.949-2.173-4.81-5.432-5.275-8.999-10.085-69.043 15.205-136.689 65.473-181.838h-26.22c-2.018-0.017-4.006-0.483-5.822-1.364s-3.412-2.155-4.674-3.729c-1.262-1.575-2.158-3.411-2.625-5.373-0.465-1.964-0.488-4.006-0.066-5.98l39.718-183.389h-127.69v379.811c0 7.448-6.051 13.654-13.652 13.654h-138.86v146.774c0 7.447-6.052 13.652-13.654 13.652h-152.359c-7.447 0-13.652-6.051-13.652-13.652v-91.074h-138.551c-7.447 0-13.653-6.051-13.653-13.654v-435.355h-31.651c-7.447 0-13.653-6.051-13.653-13.652v-112.485c0-7.448 6.051-13.654 13.653-13.654h961.94c7.447 0 13.652 6.051 13.652 13.654v112.485c0 7.602-6.206 13.652-13.652 13.652zM848.218 440.864h-19.549c11.948 22.188 19.86 46.7 23.118 71.99 2.171 15.825 2.327 31.962 0.465 47.943 23.118 21.721 50.89 36.771 81.455 43.907 4.655-66.405-27.927-129.241-85.489-163.84zM743.337 564.364c4.81 33.513 18.772 64.389 40.65 89.833 21.876-25.6 35.84-56.32 40.65-89.989 2.482-15.98 2.482-32.116 0.31-47.786v-0.155c-3.352-27.005-12.91-52.866-27.928-75.559h-26.065c-8.067 12.258-14.584 25.445-19.394 39.254-9.463 26.841-12.411 56.010-8.222 84.402zM634.266 604.704c30.875-7.136 58.647-22.341 81.608-43.907-3.257-30.255 0-61.13 10.085-89.523 3.569-10.395 8.069-20.48 13.499-30.255h-19.704c-57.406 34.599-89.987 97.435-85.487 163.685zM664.984 413.713h237.848l-37.546-172.684h-162.754l-37.548 172.684zM89.838 376.477h125.208v-46.235h-125.208v46.235zM519.918 330.242h-125.207v46.235h125.207v-46.235zM394.711 241.029v62.060h125.207v-62.060h-125.207zM519.918 607.187v-203.559h-125.207v203.559h125.207zM242.352 767.458h125.207v-526.584h-125.207v526.584zM215.201 662.731v-259.104h-125.363v259.104h125.363zM89.838 303.089h125.208v-62.060h-125.208v62.060zM979.477 128.544h-934.788v85.334h934.788v-85.334zM105.192 155.705c8.569 0 15.515 6.947 15.515 15.515s-6.946 15.515-15.515 15.515c-8.569 0-15.515-6.947-15.515-15.515s6.946-15.515 15.515-15.515zM918.81 155.705c8.568 0 15.515 6.947 15.515 15.515s-6.947 15.515-15.515 15.515c-8.568 0-15.515-6.947-15.515-15.515s6.947-15.515 15.515-15.515z" />
<glyph unicode="&#xe91c;" glyph-name="frame-7" d="M749.149 52.698l-160.905 69.478c-2.965 1.282-6.32 1.333-9.323 0.142-3.004-1.191-5.412-3.527-6.694-6.493s-1.333-6.32-0.142-9.324c1.191-3.003 3.527-5.411 6.493-6.692l161.245-69.617c0.944-0.375 1.721-1.081 2.185-1.988 0.464-0.905 0.581-1.949 0.333-2.935-0.137-0.557-0.389-1.078-0.738-1.533s-0.791-0.831-1.294-1.107c-0.884-0.518-1.935-0.676-2.932-0.438l-155.511 56.248c-1.513 0.589-3.129 0.87-4.754 0.825-1.623-0.044-3.223-0.413-4.701-1.084s-2.81-1.632-3.912-2.825c-1.102-1.193-1.955-2.595-2.509-4.122s-0.795-3.15-0.711-4.772c0.083-1.623 0.489-3.212 1.196-4.676 0.708-1.462 1.699-2.769 2.918-3.843s2.641-1.893 4.18-2.409l119.561-43.25c-3.137-4.385-5.125-9.487-5.781-14.839s0.038-10.784 2.021-15.797c1.983-5.015 5.191-9.451 9.332-12.905s9.079-5.816 14.368-6.87c5.287-1.053 10.755-0.763 15.904 0.84 5.147 1.605 9.811 4.474 13.563 8.346s6.475 8.623 7.918 13.818c1.444 5.195 1.562 10.669 0.345 15.922 0.414 0.203 0.861 0.276 1.259 0.495 4.713 2.599 8.597 6.477 11.202 11.187 2.604 4.712 3.823 10.062 3.518 15.437s-2.125 10.552-5.246 14.937c-3.122 4.385-7.412 7.797-12.389 9.845zM719.422-14.092c-1.554 0-3.072 0.461-4.364 1.324s-2.298 2.090-2.893 3.525c-0.595 1.435-0.75 3.015-0.447 4.539 0.303 1.522 1.051 2.923 2.149 4.021 1.099 1.099 2.498 1.846 4.022 2.15s3.102 0.148 4.537-0.447c1.437-0.595 2.662-1.602 3.525-2.893s1.324-2.81 1.324-4.364c-0.002-2.083-0.83-4.079-2.302-5.552-1.473-1.471-3.47-2.299-5.551-2.302zM787.575 509.734c-4.962 2.795-10.46 4.509-16.131 5.028 0.991 8.853 1.982 17.577 2.965 25.992 9.437 81.263 16.902 145.447-17.212 184.425-22.076 25.228-58.878 37.436-115.881 38.427-12.574 0.146-43.049 0-55.558-0.081-39.32-0.259-92.481-7.546-122.517-40.749-8.317-9.44-14.5-20.561-18.129-32.608s-4.617-24.733-2.899-37.195c6.594-69.811-5.507-126.018-15.238-171.178-8.326-38.704-15.319-71.266-2.525-92.758-35.739-10.112-93.301-33.301-113.259-81.11-3.242-7.835-4.798-16.265-4.564-24.74-0.504-0.002-1.004 0.086-1.479 0.259-0.343 0.366-0.607 0.8-0.776 1.271-0.17 0.473-0.239 0.974-0.206 1.474v98.354c8.12 5.664 15.901 11.799 23.302 18.373 5.415 4.932 11.166 9.48 17.212 13.613 14.331 7.612 29.164 14.241 44.396 19.843 7.022 2.912 13.106 7.703 17.587 13.844s7.186 13.396 7.819 20.971c0.632 7.576-0.833 15.179-4.233 21.978-3.402 6.799-8.608 12.53-15.048 16.568-11.267 5.786-24.315 7.055-36.486 3.549-36.105-10.246-70.923-24.578-103.779-42.716-8.279-3.789-15.554-9.469-21.239-16.581s-9.623-15.459-11.494-24.371c-1.367-7.153-1.080-14.523 0.842-21.548 1.922-7.023 5.427-13.515 10.246-18.974 1.032-1.202 2.226-2.25 3.37-3.346v-102.822c-0.259-9.037 1.775-17.992 5.914-26.031 4.14-8.038 10.248-14.896 17.754-19.933 11.96-7.653 25.931-11.564 40.126-11.234 11.848 0.152 23.59 2.254 34.754 6.222 10.443-6.932 22.694-10.641 35.227-10.665h128.333l2.811-89.346-182.194-79.087c-5.034-1.995-9.397-5.382-12.58-9.763s-5.054-9.579-5.394-14.984 0.863-10.796 3.471-15.542c2.607-4.747 6.51-8.653 11.255-11.264 0.39-0.22 0.812-0.294 1.251-0.495-0.532-2.309-0.804-4.667-0.813-7.034-0.023-5.078 1.155-10.088 3.436-14.624s5.602-8.468 9.692-11.476c4.090-3.009 8.832-5.009 13.842-5.835 5.009-0.828 10.142-0.459 14.982 1.074s9.249 4.188 12.868 7.749c3.619 3.561 6.346 7.927 7.957 12.741s2.062 9.942 1.315 14.964c-0.745 5.022-2.668 9.796-5.611 13.934l108.652 39.304c1.504 0.545 2.887 1.382 4.069 2.462 1.181 1.080 2.138 2.382 2.816 3.831s1.063 3.019 1.135 4.619c0.072 1.598-0.172 3.195-0.718 4.7s-1.381 2.887-2.462 4.067c-1.080 1.182-2.381 2.138-3.831 2.816-1.449 0.679-3.018 1.065-4.617 1.137s-3.195-0.173-4.7-0.718l-144.229-52.179c-0.545-0.178-1.119-0.241-1.69-0.187-0.569 0.054-1.122 0.224-1.623 0.5-0.501 0.277-0.941 0.654-1.291 1.107s-0.601 0.974-0.741 1.528c-0.238 1.053-0.075 2.156 0.456 3.095s1.394 1.646 2.418 1.983l173.672 75.383 3.25-102.781c0.345-4.391 1.705-8.642 3.971-12.419-4.299-4.506-7.203-10.162-8.359-16.282s-0.518-12.445 1.84-18.209c2.358-5.766 6.335-10.725 11.449-14.28s11.148-5.555 17.373-5.757c6.225-0.202 12.377 1.402 17.711 4.619s9.623 7.909 12.35 13.509c2.726 5.6 3.774 11.869 3.016 18.053-0.757 6.182-3.289 12.012-7.287 16.789 3.227 4.637 4.962 10.148 4.971 15.798l4.71 216.517h34.227c20.769 0.828 41.341 4.378 61.186 10.559 9.505-4.030 19.73-6.078 30.053-6.019 8.142 0.038 16.25 1.038 24.156 2.98 3.647 0.87 7.084 2.461 10.109 4.674 3.024 2.215 5.578 5.012 7.508 8.225 3.078 5.096 4.43 11.049 3.858 16.976 30.938 12.881 28.428 45.136 26.35 71.281-1.438 17.122-2.178 49.693-1.666 72.638 0.179 8.448 0.52 17.918 0.95 26.91 9.3 3.882 17.009 6.773 17.349 6.904 7.022 2.912 13.106 7.703 17.587 13.842 4.482 6.141 7.186 13.396 7.819 20.972s-0.833 15.179-4.233 21.978c-3.4 6.799-8.608 12.53-15.048 16.568v-0.057zM251.848 404.899c-2.296 2.801-3.959 6.067-4.87 9.573-0.913 3.506-1.051 7.168-0.41 10.732 1.045 5.424 3.458 10.491 7.013 14.72 3.554 4.227 8.13 7.477 13.294 9.436 31.297 17.242 64.455 30.868 98.833 40.612 2.203 0.628 4.485 0.931 6.773 0.902 3.399 0.122 6.782-0.507 9.91-1.845 2.595-1.656 4.692-3.985 6.070-6.737 1.379-2.753 1.988-5.828 1.76-8.897-0.227-3.070-1.282-6.022-3.051-8.541-1.769-2.521-4.186-4.515-6.998-5.771-16.577-6.094-32.697-13.363-48.238-21.752-7.159-4.784-13.946-10.1-20.307-15.904-14.441-12.402-32.416-27.803-45.696-24.699-5.445 1.152-10.38 4.015-14.085 8.171zM273.926 257.218c-4.194 2.799-7.587 6.641-9.845 11.148-2.26 4.507-3.31 9.525-3.045 14.559v89.931c2.84-0.634 5.74-0.961 8.65-0.976 3.411 0.054 6.804 0.498 10.112 1.325v-87.007c-0.062-4.602 1.027-9.147 3.167-13.22 2.141-4.073 5.266-7.549 9.090-10.107 4.608-2.735 9.891-4.123 15.247-4.004 1.608 0.015 3.214 0.131 4.808 0.349 1.152-2.542 2.474-5.003 3.954-7.367-14.206-3.81-29.341-1.881-42.138 5.368zM348.756 1.616c1.554 0 3.072-0.461 4.364-1.324s2.298-2.090 2.893-3.525c0.595-1.435 0.75-3.015 0.447-4.537-0.303-1.524-1.051-2.923-2.15-4.022-1.098-1.098-2.497-1.846-4.021-2.149s-3.104-0.148-4.539 0.447c-1.435 0.593-2.661 1.601-3.524 2.893s-1.325 2.81-1.325 4.363c0.003 2.083 0.831 4.079 2.304 5.552s3.468 2.301 5.551 2.302zM450.805 476.667c9.544 44.332 22.621 105.047 15.669 178.595-1.396 9.094-0.791 18.384 1.771 27.222s7.017 17.010 13.061 23.95c18.795 20.777 55.947 32.399 104.6 32.724 12.451 0.074 42.738 0.244 55.028 0.081 48.905-0.852 80.932-10.698 97.915-30.101 26.999-30.866 20.094-90.305 11.371-165.566-1.194-10.21-2.437-20.834-3.59-31.678-34.533-10.061-67.842-23.927-99.311-41.342-8.272-3.733-15.545-9.364-21.23-16.435-5.685-7.073-9.621-15.387-11.487-24.266-1.297-6.776-1.111-13.753 0.545-20.451s4.742-12.958 9.047-18.349c-56.764 10.875-114.941 12.247-172.154 4.061-14.994 9.763-12.077 31.23-1.235 81.556zM532.98-39.346c-1.556-0.002-3.077 0.459-4.37 1.322-1.295 0.863-2.304 2.090-2.9 3.527s-0.753 3.018-0.45 4.543c0.303 1.525 1.051 2.927 2.15 4.028 1.099 1.099 2.5 1.849 4.025 2.153s3.107 0.149 4.543-0.446c1.438-0.595 2.665-1.604 3.53-2.896 0.864-1.294 1.327-2.814 1.327-4.37-0.003-2.083-0.831-4.079-2.302-5.554-1.473-1.474-3.47-2.304-5.552-2.309zM538.276 4.954c0.003-1.016-0.361-2-1.029-2.768-0.666-0.768-1.587-1.268-2.595-1.408-0.566-0.071-1.141-0.029-1.691 0.126s-1.063 0.419-1.509 0.776c-0.803 0.61-1.342 1.501-1.51 2.494l-3.778 119.959v0.081l-3.054 97.071h19.869l-4.703-216.331zM601.63 245.652h-231.195c-5.222-0.002-10.391 1.042-15.203 3.069s-9.171 4.997-12.818 8.733c-0.202 0.253-0.416 0.494-0.642 0.723-4.647 4.831-7.957 10.787-9.602 17.285-0.068 1.185-0.312 2.355-0.723 3.468-1.086 6.62-0.31 13.411 2.242 19.616 21.069 50.44 101.984 69.39 117.352 71.972 59.086 10.392 119.68 8.529 178.018-5.474v-82.117c-0.13-11.457 3.274-22.677 9.746-32.133-12.183-3.040-24.657-4.763-37.209-5.141h0.033zM713.8 254.27c-0.563-0.914-1.467-1.569-2.51-1.819-7.79-2.455-16.023-3.173-24.12-2.108s-15.864 3.888-22.754 8.273c-3.623 2.894-6.507 6.606-8.415 10.833s-2.784 8.846-2.558 13.476v89.931c2.84-0.634 5.739-0.961 8.65-0.976 3.409 0.059 6.802 0.503 10.112 1.325v-87.007c-0.059-4.605 1.035-9.151 3.18-13.225 2.147-4.075 5.278-7.547 9.109-10.103 2.080-1.316 8.415-5.328 26.040-3.037 0.849 0.059 1.69-0.193 2.369-0.706s1.146-1.256 1.319-2.089c0.113-0.468 0.131-0.955 0.053-1.431s-0.25-0.931-0.507-1.339h0.033zM727.608 280.448c-0.254-0.092-0.507-0.191-0.756-0.301l-0.967-0.414c-5.45 3.593-12.011 5.108-18.486 4.265-3.339-0.562-6.74-0.649-10.104-0.261-0.471 0.726-0.717 1.574-0.706 2.438v53.039c1.893-1.137 3.908-2.25 5.646-3.42 1.325-0.935 2.825-1.596 4.409-1.944s3.223-0.375 4.817-0.081c1.596 0.294 3.116 0.904 4.472 1.792 1.357 0.89 2.522 2.040 3.429 3.387 0.907 1.345 1.534 2.858 1.848 4.45s0.306 3.23-0.023 4.819c-0.328 1.589-0.97 3.095-1.888 4.432s-2.095 2.479-3.461 3.355c-6.194 4.066-12.636 7.739-19.29 10.997v17.544c8.121 5.667 15.905 11.802 23.311 18.373 5.412 4.93 11.16 9.48 17.203 13.613 0.675 0.414 1.422 0.812 2.178 1.266-0.187-5.043-0.373-69.941 1.3-89.865 2.307-28.988 1.795-42.237-12.979-47.483h0.048zM772.597 459.050c-16.575-6.091-32.693-13.362-48.23-21.751-7.174-4.778-13.975-10.092-20.347-15.896-14.449-12.411-32.44-27.803-45.704-24.709-5.435 1.172-10.354 4.046-14.044 8.204-2.245 2.816-3.876 6.072-4.786 9.556s-1.077 7.123-0.494 10.677c1.191 5.368 3.658 10.371 7.192 14.583 3.536 4.212 8.034 7.51 13.113 9.614 31.3 17.244 64.461 30.869 98.842 40.612 2.202 0.628 4.485 0.931 6.773 0.901 3.397 0.125 6.778-0.504 9.901-1.843 2.595-1.656 4.694-3.986 6.072-6.739 1.379-2.751 1.986-5.826 1.759-8.897s-1.282-6.022-3.049-8.541c-1.769-2.519-4.188-4.513-6.998-5.771zM684.827 768.098c-1.277-0.002-2.552 0.050-3.825 0.154-38.426 3.596-77.091 3.837-115.557 0.723-11.118-1.193-22.28 1.812-31.295 8.422-9.016 6.612-15.237 16.355-17.44 27.317-4.682 27.514-5.861 55.509-3.509 83.319 1.876 30.508 18.455 67.562 86.698 70.843 39.572 1.925 84.262 2.859 114.411-9.99 48.735-20.761 25.391-106.452 14.182-147.623-2.635-9.552-8.337-17.973-16.226-23.965-7.891-5.992-17.533-9.225-27.44-9.199zM615.048 795.502c21.281 0 44.162-0.982 67.968-2.964 4.849-0.459 9.704 0.806 13.714 3.569s6.92 6.852 8.216 11.546c7.197 26.301 28.964 106.379-0.187 118.823-25.398 10.835-66.822 9.82-103.648 8.074-53.859-2.599-62.258-27.015-63.55-48.011-2.212-25.727-1.17-51.631 3.102-77.097 1.030-5.022 3.903-9.477 8.055-12.484s9.279-4.349 14.372-3.76c15.773 1.542 33.244 2.306 51.957 2.306z" />
<glyph unicode="&#xe91d;" glyph-name="close" d="M602.357 448l402.136 402.134c6.099 5.894 10.97 12.946 14.317 20.742 3.354 7.796 5.114 16.181 5.19 24.666 0.070 8.485-1.542 16.899-4.762 24.753-3.213 7.853-7.955 14.988-13.952 20.988-6.003 6-13.139 10.745-20.992 13.958s-16.269 4.83-24.749 4.756c-8.486-0.074-16.87-1.837-24.672-5.186-7.795-3.349-14.842-8.217-20.742-14.32l-402.131-402.134-402.134 402.134c-12.052 11.64-28.194 18.081-44.948 17.936s-32.782-6.866-44.63-18.714c-11.848-11.848-18.568-27.875-18.714-44.63s6.295-32.897 17.936-44.948l402.134-402.134-402.134-402.131c-6.103-5.901-10.971-12.947-14.32-20.742-3.349-7.802-5.112-16.186-5.186-24.672-0.074-8.48 1.543-16.896 4.756-24.749s7.958-14.989 13.958-20.992c6-5.997 13.135-10.739 20.988-13.952 7.853-3.219 16.268-4.832 24.753-4.762 8.485 0.077 16.87 1.837 24.666 5.19 7.796 3.347 14.848 8.218 20.742 14.317l402.134 402.136 402.131-402.136c8.915-8.998 20.307-15.136 32.717-17.638 12.416-2.496 25.299-1.242 36.998 3.603s21.69 13.062 28.704 23.61c7.008 10.547 10.72 22.944 10.662 35.603 0.006 8.397-1.651 16.704-4.864 24.454s-7.923 14.797-13.856 20.73l-402.136 402.131z" />
<glyph unicode="&#xe91e;" glyph-name="bag" d="M864 800h-704c-16.974 0-33.253-6.743-45.255-18.745s-18.745-28.281-18.745-45.255v-576c0-16.973 6.743-33.254 18.745-45.257s28.281-18.743 45.255-18.743h704c16.973 0 33.254 6.741 45.257 18.743s18.743 28.284 18.743 45.257v576c0 16.974-6.741 33.253-18.743 45.255s-28.284 18.745-45.257 18.745zM864 736v-64h-704v64h704zM864 160h-704v448h704v-448zM704 512c0-50.923-20.228-99.759-56.235-135.765s-84.843-56.235-135.765-56.235c-50.923 0-99.758 20.228-135.764 56.235s-56.236 84.843-56.236 135.765c0 8.486 3.372 16.627 9.373 22.627s14.141 9.373 22.627 9.373c8.487 0 16.626-3.372 22.627-9.373s9.373-14.141 9.373-22.627c0-33.946 13.486-66.505 37.49-90.509s56.564-37.491 90.51-37.491c33.946 0 66.505 13.487 90.509 37.491s37.491 56.563 37.491 90.509c0 8.486 3.371 16.627 9.374 22.627 5.999 6.001 14.14 9.373 22.626 9.373s16.627-3.372 22.626-9.373c6.003-6 9.374-14.141 9.374-22.627z" />
<glyph unicode="&#xe91f;" glyph-name="telegram" d="M915.523 855.247c-4.961 4.281-10.993 7.129-17.449 8.235s-13.092 0.431-19.195-1.955l-810.638-317.24c-11.489-4.467-21.215-12.546-27.715-23.020s-9.422-22.775-8.325-35.053c1.096-12.278 6.152-23.867 14.405-33.023s19.257-15.386 31.355-17.746l210.040-41.236v-234.204c-0.041-12.754 3.749-25.231 10.882-35.804 7.132-10.578 17.276-18.77 29.118-23.516 11.824-4.828 24.826-5.985 37.318-3.323s23.892 9.016 32.722 18.248l101.28 105.037 160.678-140.641c11.597-10.281 26.547-15.969 42.040-16 6.794 0.005 13.542 1.075 20.004 3.164 10.557 3.348 20.050 9.405 27.54 17.567 7.485 8.161 12.708 18.145 15.14 28.954l162.355 706.318c1.454 6.37 1.147 13.015-0.891 19.223s-5.724 11.745-10.665 16.017zM670.961 711.247l-358.36-256.64-198.4 38.92 556.76 217.72zM352.001 160.005v189.921l99.16-86.958-99.16-102.963zM702.121 128.005l-330.72 290.002 476 341.16-145.28-631.162z" />
<glyph unicode="&#xe920;" glyph-name="skype" d="M672 352c0-70.564-71.757-128-160-128-88.239 0-159.998 57.436-159.998 128 0 8.484 3.372 16.625 9.373 22.625s14.14 9.375 22.627 9.375c8.487 0 16.626-3.374 22.627-9.375s9.373-14.141 9.373-22.625c0-34.683 44-64 95.998-64 52.004 0 96 29.317 96 64 0 37.919-34.437 51.999-107.518 73.037-63 18.161-141.36 40.762-141.36 118.962 0 72.96 65.72 128 152.879 128 62.884 0 116.721-29.2 140.483-76 2.048-3.762 3.323-7.898 3.743-12.162 0.425-4.264-0.015-8.569-1.29-12.66-1.27-4.091-3.354-7.885-6.118-11.156-2.77-3.272-6.164-5.954-9.989-7.888-3.82-1.934-7.992-3.081-12.268-3.373s-8.566 0.279-12.616 1.676c-4.050 1.398-7.777 3.594-10.962 6.46s-5.765 6.342-7.583 10.222c-12.836 25.12-44.8 40.88-83.4 40.88-50.679 0-88.879-27.52-88.879-64 0-28 36-40.4 95.079-57.44 64.922-18.56 153.8-44.36 153.8-134.559zM928 256c-0.061-59.392-23.68-116.326-65.674-158.326-41.999-41.994-98.934-65.613-158.326-65.674-44.416-0.159-87.854 13.036-124.677 37.878-60.882-10.767-123.464-6.697-182.434 11.878s-112.59 51.103-156.308 94.822c-43.718 43.72-76.244 97.336-94.819 156.308-18.575 58.967-22.65 121.55-11.88 182.432-24.841 36.822-38.039 80.262-37.88 124.68 0.063 59.389 23.684 116.327 65.678 158.322s98.933 65.615 158.322 65.678c44.418 0.159 87.858-13.039 124.68-37.88 60.881 10.77 123.465 6.695 182.432-11.88 58.972-18.575 112.589-51.102 156.308-94.819s76.247-97.337 94.822-156.308c18.575-58.971 22.646-121.552 11.878-182.434 24.842-36.823 38.036-80.261 37.878-124.677zM864 256c0.123 35.359-11.592 69.745-33.28 97.679-2.847 3.686-4.859 7.951-5.888 12.498s-1.055 9.267-0.072 13.819c11.331 52.367 9.339 106.737-5.78 158.133-15.124 51.397-42.9 98.179-80.783 136.063s-84.669 65.659-136.064 80.782c-51.395 15.123-105.766 17.112-158.131 5.784-4.556-0.984-9.272-0.96-13.819 0.070s-8.813 3.040-12.501 5.89c-27.932 21.686-62.318 33.401-97.68 33.28-42.435 0-83.131-16.857-113.137-46.863s-46.863-70.703-46.863-113.137c-0.121-35.362 11.594-69.748 33.28-97.68 2.85-3.688 4.86-7.955 5.89-12.501s1.053-9.263 0.070-13.819c-11.328-52.365-9.339-106.737 5.784-158.131s42.898-98.181 80.782-136.064c37.884-37.883 84.666-65.659 136.063-80.783 51.397-15.119 105.766-17.111 158.133-5.78 4.552 0.983 9.272 0.957 13.819-0.072s8.812-3.041 12.498-5.888c27.935-21.688 62.321-33.403 97.679-33.28 42.435 0 83.133 16.855 113.137 46.863 30.008 30.003 46.863 70.702 46.863 113.137z" />
<glyph unicode="&#xe921;" glyph-name="instagram" d="M512 640c-37.974 0-75.095-11.26-106.67-32.358s-56.183-51.083-70.715-86.167c-14.532-35.083-18.334-73.69-10.926-110.933s25.694-71.455 52.546-98.309c26.852-26.849 61.063-45.138 98.307-52.541 37.244-7.409 75.847-3.61 110.935 10.926 35.082 14.531 65.070 39.137 86.164 70.712 21.1 31.575 32.358 68.695 32.358 106.67-0.051 50.905-20.301 99.71-56.294 135.706s-84.803 56.241-135.706 56.294zM512 320c-25.316 0-50.063 7.506-71.113 21.571s-37.455 34.058-47.143 57.446c-9.688 23.388-12.223 49.125-7.284 73.955s17.129 47.637 35.031 65.538c17.901 17.901 40.709 30.092 65.538 35.031s50.567 2.404 73.955-7.284c23.388-9.688 43.382-26.094 57.446-47.143s21.571-45.797 21.571-71.113c0-33.946-13.486-66.504-37.489-90.511-24.008-24.003-56.566-37.489-90.511-37.489zM704 864h-384c-59.389-0.063-116.327-23.684-158.322-65.678s-65.615-98.933-65.678-158.322v-384c0.063-59.387 23.684-116.326 65.678-158.321s98.933-65.618 158.322-65.679h384c59.387 0.061 116.326 23.685 158.321 65.679s65.618 98.934 65.679 158.321v384c-0.061 59.389-23.685 116.327-65.679 158.322s-98.934 65.615-158.321 65.678zM864 256c0-42.435-16.855-83.133-46.863-113.137-30.003-30.008-70.702-46.863-113.137-46.863h-384c-42.435 0-83.131 16.855-113.137 46.863-30.006 30.003-46.863 70.702-46.863 113.137v384c0 42.435 16.857 83.131 46.863 113.137s70.703 46.863 113.137 46.863h384c42.435 0 83.133-16.857 113.137-46.863 30.008-30.006 46.863-70.703 46.863-113.137v-384zM768 656c0-9.494-2.816-18.774-8.090-26.668s-12.769-14.046-21.54-17.679c-8.771-3.633-18.422-4.583-27.735-2.732s-17.864 6.424-24.576 13.137c-6.712 6.713-11.284 15.266-13.138 24.577s-0.901 18.962 2.734 27.734c3.63 8.771 9.784 16.267 17.679 21.541 7.89 5.275 17.172 8.090 26.665 8.090 12.728 0 24.94-5.057 33.94-14.059s14.060-21.211 14.060-33.941z" />
<glyph unicode="&#xe922;" glyph-name="x" d="M859.003 113.162l-250.399 393.518 247.076 271.8c5.591 6.299 8.468 14.546 8.018 22.955s-4.198 16.3-10.435 21.963c-6.231 5.663-14.444 8.642-22.856 8.29s-16.348-4.005-22.088-10.168l-235.356-258.88-161.962 254.52c-2.888 4.546-6.877 8.289-11.596 10.883s-10.018 3.955-15.404 3.957h-192c-5.738 0.003-11.37-1.537-16.309-4.458s-9-7.116-11.761-12.146c-2.76-5.030-4.118-10.71-3.929-16.444s1.914-11.313 4.998-16.152l250.4-393.48-247.080-272c-2.886-3.098-5.127-6.738-6.595-10.711s-2.132-8.197-1.956-12.426c0.177-4.234 1.191-8.387 2.985-12.221s4.332-7.281 7.465-10.127c3.134-2.847 6.802-5.043 10.791-6.467 3.99-1.418 8.221-2.033 12.449-1.802 4.229 0.225 8.37 1.29 12.184 3.128 3.814 1.843 7.225 4.419 10.035 7.588l235.36 258.877 161.96-254.52c2.913-4.506 6.912-8.212 11.628-10.767 4.721-2.56 10.004-3.891 15.37-3.871h192c5.734 0 11.361 1.541 16.292 4.465 4.931 2.918 8.991 7.107 11.75 12.129 2.755 5.023 4.116 10.696 3.932 16.425-0.179 5.729-1.9 11.305-4.972 16.143zM657.562 128l-407.28 640h116l407.442-640h-116.163z" />
<glyph unicode="&#xe923;" glyph-name="facebook" d="M512 864c-82.277 0-162.706-24.398-231.117-70.109s-121.731-110.681-153.217-186.695c-31.486-76.014-39.724-159.657-23.673-240.353s55.672-154.819 113.85-212.997c58.179-58.179 132.303-97.802 212.999-113.853s164.342-7.813 240.353 23.675c76.017 31.483 140.984 84.803 186.696 153.216 45.711 68.408 70.108 148.838 70.108 231.117-0.118 110.295-43.981 216.038-121.974 294.028-77.988 77.99-183.731 121.856-294.026 121.972zM544 97.48v254.52h96c8.489 0 16.625 3.369 22.625 9.375 6.006 6.001 9.375 14.136 9.375 22.625s-3.369 16.625-9.375 22.625c-6.001 6.006-14.136 9.375-22.625 9.375h-96v96c0 16.974 6.743 33.252 18.744 45.255s28.283 18.745 45.256 18.745h64c8.489 0 16.625 3.372 22.625 9.373 6.006 6.001 9.375 14.14 9.375 22.627s-3.369 16.626-9.375 22.627c-6.001 6.001-14.136 9.373-22.625 9.373h-64c-33.946 0-66.504-13.486-90.511-37.49-24.003-24.005-37.489-56.562-37.489-90.51v-96h-96c-8.487 0-16.626-3.369-22.627-9.375-6.001-6.001-9.373-14.136-9.373-22.625s3.372-16.625 9.373-22.625c6.001-6.006 14.14-9.375 22.627-9.375h96v-254.52c-90.208 8.233-173.769 50.929-233.303 119.204-59.533 68.27-90.455 156.867-86.333 247.355 4.122 90.49 42.97 175.907 108.463 238.485s152.59 97.499 243.173 97.499c90.583 0 177.679-34.921 243.174-97.499 65.49-62.578 104.34-147.995 108.462-238.485s-26.803-179.085-86.333-247.355c-59.535-68.275-143.094-110.971-233.303-119.204z" />
<glyph unicode="&#xe925;" glyph-name="headset" d="M807.561 741.36c-38.281 38.665-83.812 69.399-133.985 90.444-50.176 21.044-104.007 31.985-158.416 32.196h-3.16c-110.33 0-216.141-43.828-294.157-121.843s-121.843-183.826-121.843-294.157v-224c0-25.461 10.114-49.88 28.118-67.883s42.421-28.117 67.882-28.117h64c25.461 0 49.88 10.115 67.883 28.117s28.117 42.422 28.117 67.883v160c0 25.461-10.115 49.88-28.117 67.883s-42.422 28.117-67.883 28.117h-94.56c6.171 66.722 31.233 130.304 72.249 183.293 41.015 52.987 96.286 93.186 159.331 115.884 63.047 22.699 131.257 26.956 196.634 12.274 65.38-14.682 125.221-47.696 172.507-95.172 57.796-58.092 93.346-134.641 100.44-216.28h-94.601c-25.461 0-49.88-10.115-67.883-28.117s-28.117-42.422-28.117-67.883v-160c0-25.461 10.115-49.88 28.117-67.883s42.422-28.117 67.883-28.117h96c0-25.461-10.115-49.88-28.117-67.883s-42.422-28.117-67.883-28.117h-224c-8.488 0-16.626-3.371-22.628-9.372s-9.372-14.14-9.372-22.628c0-8.488 3.371-16.626 9.372-22.628s14.14-9.372 22.628-9.372h224c42.433 0 83.132 16.856 113.138 46.862s46.862 70.704 46.862 113.138v320c0.208 54.417-10.322 108.339-30.99 158.68s-51.063 96.108-89.449 134.68zM256 416c8.487 0 16.626-3.371 22.628-9.372s9.372-14.14 9.372-22.628v-160c0-8.488-3.371-16.626-9.372-22.628s-14.141-9.372-22.628-9.372h-64c-8.487 0-16.626 3.371-22.628 9.372s-9.372 14.14-9.372 22.628v192h96zM768 192c-8.488 0-16.626 3.371-22.628 9.372s-9.372 14.14-9.372 22.628v160c0 8.488 3.371 16.626 9.372 22.628s14.14 9.372 22.628 9.372h96v-224h-96z" />
<glyph unicode="&#xe927;" glyph-name="sealpercent" d="M897.679 543.2c-15.599 16.28-31.72 33.080-38.199 48.72-6.001 14.52-6.321 36-6.68 58.72-0.561 37.521-1.201 80-29.681 108.481-28.481 28.479-71.12 29.119-108.481 29.681-22.719 0.358-44 0.679-58.72 6.679-15.64 6.48-32.44 22.6-48.72 38.2-26.559 25.44-56.639 54.32-95.2 54.32s-68.64-28.88-95.2-54.32c-16.28-15.6-33.080-31.72-48.72-38.2-14.52-6-36-6.321-58.72-6.679-37.521-0.561-80-1.201-108.481-29.681-28.479-28.481-29.119-71.12-29.681-108.481-0.358-22.719-0.679-44-6.679-58.72-6.48-15.64-22.6-32.44-38.2-48.72-25.44-26.559-54.32-56.639-54.32-95.2s28.88-68.64 54.32-95.2c15.6-16.28 31.72-33.080 38.2-48.72 6-14.52 6.321-36 6.679-58.72 0.561-37.521 1.201-80 29.681-108.481 28.481-28.479 71.12-29.119 108.481-29.681 22.719-0.358 44-0.679 58.72-6.68 15.64-6.479 32.44-22.6 48.72-38.199 26.559-25.441 56.639-54.32 95.2-54.32s68.64 28.879 95.2 54.32c16.28 15.599 33.080 31.72 48.72 38.199 14.52 6.001 36 6.321 58.72 6.68 37.521 0.561 80 1.201 108.481 29.681 28.479 28.481 29.119 70.96 29.681 108.481 0.358 22.719 0.679 44 6.68 58.72 6.479 15.64 22.6 32.44 38.199 48.72 25.441 26.559 54.32 56.639 54.32 95.2s-28.879 68.64-54.32 95.2zM863.039 386.039c-18.679-19.48-37.999-39.639-48-63.64-9.52-22.96-9.919-50.080-10.319-76.319-0.44-29.761-0.92-60.561-15.601-75.281s-45.52-15.16-75.279-15.599c-26.24-0.401-53.361-0.8-76.32-10.32-24.001-9.921-44-29.24-63.64-48-21.001-20-42.72-40.96-61.961-40.96-19.239 0-40.96 20.84-62 40.96-19.441 18.679-39.6 37.999-63.601 48-22.96 9.52-50.079 9.919-76.319 10.32-29.761 0.439-60.561 0.92-75.281 15.599-14.72 14.681-15.16 45.52-15.599 75.281-0.401 26.238-0.8 53.359-10.32 76.319-9.921 24.001-29.24 44-48 63.64-19.96 21.001-40.8 42.721-40.8 61.961s20.84 40.96 40.96 61.961c18.68 19.48 38 39.639 48.001 63.64 9.52 22.96 9.919 50.080 10.319 76.32 0.44 29.759 0.92 60.559 15.601 75.279s45.52 15.16 75.279 15.599c26.24 0.401 53.361 0.8 76.32 10.32 24.001 9.921 44 29.24 63.64 48.001 20.92 20.040 42.641 40.88 61.88 40.88s40.96-20.84 62-40.96c19.441-18.68 39.6-38 63.601-48.001 22.96-9.52 50.080-9.919 76.319-10.319 29.761-0.44 60.561-0.92 75.281-15.601s15.16-45.52 15.599-75.279c0.401-26.24 0.8-53.361 10.32-76.32 9.921-24.001 29.24-44 48-63.64 20-21.001 40.96-42.72 40.96-61.961 0-19.239-20.919-40.88-41.040-61.88zM471.999 576c0 17.405-5.161 34.418-14.829 48.891-9.67 14.471-23.414 25.75-39.494 32.411-16.080 6.659-33.773 8.402-50.843 5.007s-32.751-11.778-45.058-24.084-20.688-27.988-24.084-45.058c-3.395-17.070-1.652-34.763 5.007-50.843 6.661-16.080 17.94-29.824 32.411-39.494 14.473-9.668 31.486-14.829 48.891-14.829 23.339 0 45.722 9.271 62.225 25.774s25.774 38.886 25.774 62.225zM343.999 576c0 7.912 2.347 15.645 6.741 22.223 4.396 6.577 10.643 11.704 17.952 14.732s15.351 3.82 23.11 2.277c7.76-1.543 14.887-5.352 20.482-10.947s9.404-12.721 10.947-20.482c1.545-7.759 0.751-15.802-2.277-23.11-3.028-7.31-8.154-13.556-14.732-17.952-6.577-4.395-14.31-6.741-22.223-6.741-10.609 0-20.782 4.215-28.285 11.716-7.501 7.503-11.716 17.676-11.716 28.285zM640 407.999c-17.405 0-34.418-5.161-48.891-14.829-14.471-9.67-25.75-23.414-32.411-39.494-6.659-16.080-8.402-33.773-5.007-50.843s11.778-32.751 24.084-45.058 27.988-20.688 45.058-24.084c17.070-3.395 34.763-1.652 50.843 5.007 16.080 6.661 29.824 17.94 39.494 32.411 9.668 14.473 14.829 31.486 14.829 48.891 0 23.339-9.271 45.722-25.774 62.225s-38.886 25.774-62.225 25.774zM640 279.999c-7.912 0-15.645 2.347-22.223 6.741-6.577 4.396-11.706 10.643-14.732 17.952-3.028 7.31-3.82 15.351-2.277 23.11s5.352 14.887 10.947 20.482 12.721 9.404 20.482 10.947c7.759 1.543 15.8 0.751 23.11-2.277 7.31-3.026 13.556-8.154 17.952-14.732s6.741-14.31 6.741-22.223c0-10.609-4.215-20.782-11.716-28.285-7.503-7.501-17.676-11.716-28.285-11.716zM688.961 591.041l-320.002-320.002c-4.548-4.239-10.566-6.547-16.783-6.438-6.217 0.111-12.15 2.63-16.548 7.026-4.396 4.398-6.915 10.33-7.026 16.548-0.109 6.217 2.2 12.235 6.439 16.785l319.998 319.998c4.55 4.239 10.568 6.548 16.785 6.439 6.217-0.111 12.15-2.63 16.548-7.026 4.396-4.398 6.915-10.33 7.026-16.548 0.109-6.217-2.198-12.235-6.438-16.783z" />
<glyph unicode="&#xe928;" glyph-name="lifebuoy" d="M512 856c-80.695 0-159.577-23.929-226.673-68.761s-119.39-108.553-150.27-183.105-38.96-156.587-23.218-235.732c15.743-79.143 54.601-151.842 111.66-208.903 57.061-57.059 129.76-95.918 208.903-111.66 79.145-15.742 161.179-7.663 235.732 23.217s138.274 83.174 183.105 150.27c44.832 67.096 68.762 145.978 68.762 226.673-0.128 108.169-43.155 211.872-119.641 288.36-76.488 76.486-180.19 119.513-288.36 119.64zM657.881 336c24.735 32.096 38.149 71.479 38.149 112s-13.414 79.904-38.149 112l124.959 124.919c57.475-65.527 89.165-149.717 89.165-236.88 0-87.161-31.689-171.351-89.165-236.879l-124.959 124.839zM376.001 448c0 26.899 7.975 53.192 22.919 75.558 14.945 22.366 36.185 39.796 61.036 50.091 24.851 10.293 52.197 12.986 78.577 7.738 26.382-5.246 50.615-18.2 69.635-37.219 19.019-19.021 31.973-43.254 37.219-69.635 5.248-26.382 2.555-53.726-7.738-78.577-10.295-24.851-27.725-46.092-50.091-61.036-22.364-14.944-48.659-22.919-75.558-22.919-36.069 0-70.661 14.327-96.166 39.832-25.506 25.506-39.834 60.099-39.834 96.167zM748.88 718.839l-124.88-124.959c-32.096 24.735-71.479 38.149-112 38.149s-79.903-13.414-112-38.149l-124.88 124.959c65.529 57.475 149.717 89.164 236.88 89.164s171.351-31.689 236.88-89.164zM241.161 684.88l124.96-124.88c-24.736-32.096-38.151-71.479-38.151-112s13.414-79.904 38.151-112l-124.96-124.88c-57.474 65.529-89.164 149.717-89.164 236.88s31.69 171.351 89.164 236.88zM275.12 177.161l124.88 124.959c32.097-24.735 71.479-38.149 112-38.149s79.904 13.414 112 38.149l124.919-124.959c-65.527-57.475-149.717-89.165-236.879-89.165s-171.353 31.689-236.88 89.165h-0.041z" />
<glyph unicode="&#xe929;" glyph-name="arrow-down-left" d="M919.979 512c-0.073-65.751-26.226-128.788-72.719-175.28-46.493-46.493-109.529-72.646-175.28-72.719h-486.040l150.999-151.040c2.359-2.198 4.25-4.847 5.562-7.791 1.311-2.944 2.016-6.124 2.074-9.346 0.056-3.222-0.536-6.422-1.744-9.411-1.207-2.988-3.004-5.704-5.282-7.982-2.278-2.28-4.994-4.077-7.982-5.284s-6.188-1.799-9.412-1.743c-3.222 0.056-6.4 0.761-9.344 2.074s-5.593 3.203-7.791 5.56l-192 192c-4.494 4.5-7.019 10.6-7.019 16.961s2.525 12.46 7.019 16.961l192 191.998c4.55 4.239 10.568 6.548 16.785 6.439 6.217-0.111 12.15-2.63 16.548-7.026 4.396-4.398 6.915-10.33 7.025-16.548s-2.198-12.235-6.438-16.783l-150.999-151.042h486.040c53.043 0 103.914 21.072 141.421 58.58s58.578 88.378 58.578 141.421c0 53.043-21.071 103.914-58.578 141.421s-88.378 58.58-141.421 58.58h-352c-6.366 0-12.471 2.528-16.971 7.028-4.5 4.502-7.030 10.605-7.030 16.971s2.529 12.469 7.030 16.971c4.5 4.5 10.605 7.028 16.971 7.028h352c65.751-0.073 128.787-26.226 175.28-72.719 46.493-46.491 72.646-109.529 72.719-175.28z" />
<glyph unicode="&#xe92a;" glyph-name="package" d="M890.88 688.35l-352 192.721c-8.23 4.545-17.478 6.929-26.88 6.929s-18.65-2.384-26.88-6.929l-352-192.721c-8.808-4.818-16.158-11.918-21.281-20.552s-7.831-18.488-7.839-28.527v-382.561c0.008-10.039 2.716-19.893 7.839-28.527s12.473-15.734 21.281-20.552l352-192.72c8.233-4.538 17.48-6.919 26.88-6.919s18.647 2.381 26.88 6.919l352 192.72c8.808 4.818 16.159 11.918 21.28 20.552 5.123 8.634 7.832 18.488 7.839 28.527v382.561c-0.007 10.039-2.715 19.893-7.839 28.527-5.122 8.634-12.472 15.734-21.28 20.552zM508 838.991c1.178 0.644 2.499 0.982 3.84 0.982 1.343 0 2.662-0.338 3.84-0.982l334.36-183.001-135.76-74.279-338.079 185.040 131.799 72.24zM488.001 67.99l-332.001 181.721c-1.227 0.708-2.243 1.729-2.946 2.959s-1.066 2.623-1.054 4.040v356.64l336.001-183.999v-361.361zM173.961 655.99l152.279 83.401 338.041-185.040-152.281-83.321-338.039 184.96zM872.001 256.71c0.012-1.417-0.352-2.811-1.055-4.040-0.703-1.231-1.719-2.251-2.946-2.959l-332.001-181.721v361.44l144.002 78.841v-156.281c0-6.364 2.528-12.469 7.028-16.969 4.502-4.5 10.605-7.030 16.971-7.030s12.469 2.529 16.971 7.030c4.5 4.5 7.028 10.605 7.028 16.969v182.521l144.002 78.839v-356.64z" />
<glyph unicode="&#xe92b;" glyph-name="eye" d="M989.239 460.962c-1.399 3.157-35.281 78.318-110.601 153.638-100.361 100.36-227.119 153.4-366.639 153.4s-266.281-53.040-366.64-153.4c-75.32-75.32-109.36-150.6-110.6-153.638-1.819-4.096-2.76-8.525-2.76-13.001 0-4.48 0.94-8.909 2.76-13.001 1.4-3.162 35.28-78.281 110.6-153.6 100.36-100.322 227.12-153.361 366.64-153.361s266.278 53.039 366.639 153.361c75.319 75.319 109.201 150.438 110.601 153.6 1.818 4.092 2.761 8.521 2.761 13.001 0 4.476-0.943 8.905-2.761 13.001zM512 192c-123.12 0-230.68 44.762-319.721 133.001-36.534 36.331-67.616 77.76-92.28 122.999 24.657 45.244 55.74 86.673 92.28 123 89.040 88.24 196.6 133 319.721 133 123.119 0 230.682-44.76 319.718-133 36.608-36.318 67.755-77.748 92.48-123-28.838-53.841-154.479-256-412.198-256zM512 640c-37.973 0-75.098-11.261-106.67-32.358-31.574-21.097-56.183-51.084-70.715-86.166-14.532-35.085-18.334-73.69-10.926-110.933s25.694-71.454 52.546-98.308c26.852-26.85 61.064-45.137 98.308-52.544 37.244-7.411 75.849-3.61 110.933 10.923 35.081 14.532 65.067 39.142 86.165 70.716 21.099 31.578 32.358 68.698 32.358 106.671-0.055 50.906-20.301 99.711-56.294 135.706s-84.8 56.241-135.706 56.294zM512 320c-25.318 0-50.065 7.505-71.113 21.572-21.050 14.063-37.457 34.057-47.145 57.442-9.688 23.39-12.223 49.126-7.284 73.958 4.939 24.828 17.13 47.637 35.031 65.537 17.9 17.901 40.71 30.092 65.537 35.031 24.832 4.939 50.569 2.404 73.954-7.284 23.39-9.688 43.383-26.094 57.446-47.144 14.063-21.047 21.572-45.798 21.572-71.113 0-33.946-13.487-66.505-37.491-90.509s-56.563-37.491-90.509-37.491z" />
<glyph unicode="&#xe92c;" glyph-name="compare" d="M448 351.983c-8.486 0-16.627-3.375-22.627-9.374-6.001-6.003-9.373-14.14-9.373-22.626v-114.761l-113.12 113.161c-14.91 14.814-26.732 32.439-34.778 51.861-8.047 19.418-12.161 40.239-12.102 61.257v148.48c30.165 7.788 56.454 26.311 73.939 52.096s24.966 57.062 21.041 87.968c-3.926 30.906-18.988 59.319-42.365 79.914s-53.461 31.957-84.615 31.957c-31.154 0-61.239-11.363-84.616-31.957s-38.439-49.008-42.364-79.914c-3.926-30.906 3.555-62.183 21.041-87.968s43.774-44.308 73.939-52.096v-148.519c-0.075-29.427 5.684-58.581 16.945-85.769s27.797-51.874 48.655-72.631l113.16-113.079h-114.76c-8.487 0-16.626-3.375-22.627-9.374-6.001-6.003-9.373-14.14-9.373-22.626 0-8.491 3.372-16.627 9.373-22.63 6.001-5.999 14.141-9.37 22.627-9.37h192c8.486 0 16.627 3.371 22.626 9.37 6.003 6.003 9.374 14.14 9.374 22.63v192c0 8.486-3.371 16.623-9.374 22.626-5.999 5.999-14.14 9.374-22.626 9.374zM160 703.981c0 12.658 3.753 25.032 10.786 35.556s17.028 18.728 28.722 23.572c11.695 4.844 24.563 6.112 36.977 3.642s23.819-8.565 32.769-17.516c8.951-8.951 15.046-20.354 17.516-32.769s1.202-25.283-3.642-36.977c-4.844-11.694-13.047-21.69-23.572-28.722s-22.898-10.786-35.556-10.786c-16.974 0-33.253 6.743-45.255 18.745s-18.745 28.281-18.745 45.255zM832 315.981v148.48c0.077 29.427-5.683 58.577-16.943 85.767-11.26 27.188-27.797 51.875-48.657 72.634l-113.161 113.12h114.761c8.486 0 16.627 3.372 22.626 9.373 6.003 6.001 9.374 14.141 9.374 22.627s-3.371 16.626-9.374 22.627c-5.999 6.001-14.14 9.373-22.626 9.373h-192c-8.486 0-16.627-3.372-22.626-9.373-6.003-6.001-9.374-14.141-9.374-22.627v-192c0-8.487 3.371-16.626 9.374-22.627 5.999-6.001 14.14-9.373 22.626-9.373s16.627 3.372 22.626 9.373c6.003 6.001 9.374 14.141 9.374 22.627v114.76l113.122-113.16c14.908-14.816 26.731-32.443 34.778-51.86s12.16-40.243 12.1-61.261v-148.48c-30.165-7.787-56.452-26.313-73.937-52.096-17.489-25.783-24.969-57.062-21.043-87.966 3.925-30.908 18.991-59.319 42.364-79.915 23.377-20.595 53.461-31.957 84.617-31.957s61.239 11.362 84.617 31.957c23.377 20.595 38.438 49.007 42.364 79.915 3.925 30.903-3.554 62.182-21.039 87.966s-43.776 44.309-73.941 52.096zM800 127.983c-12.659 0-25.033 3.75-35.554 10.786-10.526 7.031-18.731 17.024-23.573 28.719s-6.11 24.563-3.644 36.979c2.47 12.416 8.567 23.817 17.515 32.768 8.951 8.951 20.356 15.049 32.772 17.515 12.412 2.47 25.28 1.203 36.975-3.639 11.695-4.847 21.692-13.047 28.723-23.573s10.786-22.899 10.786-35.554c0-16.977-6.741-33.254-18.743-45.257s-28.284-18.743-45.257-18.743z" />
<glyph unicode="&#xe92d;" glyph-name="heart" d="M712 832c-82.598 0-154.918-35.52-200-95.56-45.082 60.040-117.4 95.56-200 95.56-65.751-0.074-128.788-26.226-175.281-72.719s-72.645-109.53-72.719-175.281c0-280 415.159-506.641 432.841-515.998 4.659-2.509 9.869-3.823 15.159-3.823s10.5 1.314 15.159 3.823c17.681 9.357 432.841 235.998 432.841 515.998-0.073 65.751-26.227 128.788-72.721 175.281-46.49 46.493-109.53 72.645-175.279 72.719zM512 132.8c-73.041 42.56-384 236.442-384 451.2 0.064 48.78 19.47 95.545 53.963 130.037s81.257 53.899 130.037 53.963c77.8 0 143.121-41.44 170.398-108 2.415-5.869 6.515-10.889 11.785-14.422s11.473-5.419 17.818-5.419c6.345 0 12.548 1.886 17.818 5.419s9.37 8.553 11.78 14.422c27.281 66.68 92.604 108 170.402 108 48.781-0.064 95.543-19.47 130.039-53.963 34.492-34.493 53.897-81.257 53.961-130.037 0-214.438-311.040-408.602-384-451.2z" />
<glyph unicode="&#xe92e;" glyph-name="right" d="M309.598 74.884c-13.365 13.195-14.581 33.84-3.645 48.388l3.645 4.165 324.733 320.563-324.733 320.562c-13.365 13.193-14.581 33.838-3.645 48.386l3.645 4.168c13.365 13.193 34.281 14.393 49.019 3.598l4.223-3.598 351.372-346.839c13.367-13.191 14.581-33.836 3.646-48.384l-3.646-4.169-351.372-346.84c-14.702-14.512-38.539-14.512-53.241 0z" />
<glyph unicode="&#xe92f;" glyph-name="arrow-up-right" d="M800 704v-416c0-8.489-3.369-16.625-9.375-22.625-6.001-6.006-14.136-9.375-22.625-9.375s-16.625 3.369-22.625 9.375c-6.006 6.001-9.375 14.136-9.375 22.625v338.76l-457.36-457.401c-6.004-6.006-14.148-9.375-22.64-9.375s-16.636 3.369-22.64 9.375c-6.005 6.006-9.378 14.147-9.378 22.641s3.373 16.635 9.378 22.641l457.4 457.359h-338.76c-8.487 0-16.626 3.372-22.627 9.373s-9.373 14.14-9.373 22.627c0 8.487 3.371 16.626 9.373 22.627s14.14 9.373 22.627 9.373h416c8.489 0 16.625-3.372 22.625-9.373 6.006-6.001 9.375-14.14 9.375-22.627z" />
<glyph unicode="&#xe930;" glyph-name="left" d="M714.401 821.116c13.367-13.193 14.581-33.838 3.646-48.386l-3.646-4.168-324.732-320.562 324.732-320.563c13.367-13.191 14.581-33.836 3.646-48.384l-3.646-4.169c-13.363-13.191-34.278-14.391-49.017-3.599l-4.224 3.599-351.372 346.84c-13.365 13.191-14.581 33.836-3.645 48.384l3.645 4.169 351.372 346.839c14.702 14.513 38.539 14.513 53.241 0z" />
<glyph unicode="&#xe931;" glyph-name="phone" d="M889.481 326.161l-188.962 84.681c-9.779 4.181-20.454 5.862-31.049 4.885s-20.779-4.582-29.628-10.487c-1.045-0.687-2.044-1.434-3.004-2.24l-97.357-82.999c-61.683 29.961-125.361 93.158-155.321 154.039l83.121 98.841c0.798 1 1.557 2 2.278 3.080 5.777 8.828 9.284 18.947 10.206 29.457s-0.772 21.085-4.924 30.783v0.48l-84.681 188.76c-5.49 12.669-14.931 23.223-26.912 30.086s-25.861 9.667-39.567 7.994c-54.201-7.133-103.953-33.751-139.963-74.884s-55.815-93.968-55.717-148.636c0-317.598 258.4-576 576-576 54.669-0.098 107.503 19.708 148.638 55.718 41.131 36.011 67.75 85.76 74.884 139.964 1.677 13.7-1.122 27.575-7.979 39.556s-17.399 21.423-30.063 26.923zM704 128c-135.744 0.149-265.89 54.14-361.875 150.127-95.986 95.983-149.977 226.129-150.125 361.873-0.151 39.060 13.922 76.84 39.59 106.284s61.175 48.538 99.89 53.716c-0.016-0.16-0.016-0.32 0-0.48l84-188-82.68-98.961c-0.839-0.964-1.602-1.993-2.28-3.081-6.019-9.233-9.551-19.87-10.252-30.874s1.453-21.999 6.252-31.923c36.24-74.121 110.92-148.241 185.838-184.439 10.001-4.757 21.060-6.835 32.102-6.037 11.042 0.802 21.692 4.45 30.899 10.594 1.028 0.691 2.014 1.442 2.961 2.24l97.237 82.961 188.002-84.198c0 0 0.32 0 0.439 0-5.116-38.771-24.179-74.351-53.628-100.083-29.453-25.728-67.264-39.851-106.372-39.718z" />
<glyph unicode="&#xe932;" glyph-name="cart" d="M920.561 724.52c-3.006 3.595-6.762 6.486-11.004 8.47-4.246 1.984-8.872 3.011-13.557 3.011h-645.28l-24.32 133.72c-1.34 7.373-5.225 14.042-10.977 18.845s-13.009 7.434-20.503 7.435h-98.92c-8.487 0-16.626-3.372-22.627-9.373s-9.373-14.141-9.373-22.627c0-8.487 3.372-16.626 9.373-22.627s14.141-9.373 22.627-9.373h72l102.24-561.159c3.011-16.644 10.366-32.194 21.32-45.082-15.118-14.12-26.030-32.15-31.526-52.096-5.496-19.942-5.36-41.019 0.391-60.891 5.751-19.869 16.894-37.76 32.192-51.686s34.154-23.34 54.477-27.205c20.324-3.862 41.32-2.022 60.659 5.317 19.343 7.344 36.272 19.899 48.914 36.272 12.639 16.377 20.498 35.931 22.704 56.503 2.205 20.568-1.328 41.344-10.211 60.028h181.68c-7.157-14.987-10.862-31.389-10.84-48 0-22.151 6.568-43.805 18.875-62.223 12.306-18.421 29.798-32.775 50.264-41.253s42.986-10.693 64.713-6.374c21.723 4.323 41.68 14.991 57.344 30.654s26.331 35.621 30.654 57.344c4.319 21.727 2.103 44.248-6.374 64.713s-22.832 37.957-41.253 50.264c-18.417 12.306-40.071 18.875-62.223 18.875h-387.32c-7.494 0-14.75 2.633-20.503 7.435s-9.638 11.472-10.977 18.845l-12.68 69.72h463.999c22.484 0.004 44.251 7.896 61.509 22.305 17.258 14.405 28.913 34.414 32.933 56.536l48.64 267.439c0.823 4.623 0.618 9.37-0.6 13.904-1.214 4.535-3.416 8.746-6.44 12.336zM416 144c0-9.494-2.816-18.772-8.090-26.668-5.274-7.892-12.771-14.043-21.541-17.679-8.773-3.632-18.425-4.582-27.734-2.732-9.311 1.854-17.864 6.426-24.577 13.136-6.713 6.715-11.284 15.265-13.136 24.576s-0.901 18.962 2.732 27.736c3.633 8.77 9.785 16.267 17.679 21.541s17.174 8.090 26.668 8.090c12.731 0 24.938-5.058 33.942-14.058 9-9.004 14.058-21.211 14.058-33.942zM800 144c0-9.494-2.816-18.772-8.090-26.668-5.274-7.892-12.771-14.043-21.541-17.679-8.773-3.632-18.425-4.582-27.736-2.732-9.311 1.854-17.861 6.426-24.576 13.136-6.711 6.715-11.282 15.265-13.136 24.576-1.851 9.311-0.9 18.962 2.732 27.736 3.632 8.77 9.787 16.267 17.679 21.541 7.896 5.274 17.174 8.090 26.668 8.090 12.731 0 24.938-5.058 33.942-14.058 9-9.004 14.058-21.211 14.058-33.942zM816 442.28c-1.342-7.395-5.244-14.080-11.023-18.885-5.778-4.802-13.063-7.42-20.579-7.395h-475.519l-46.52 256h595.28l-41.64-229.72z" />
<glyph unicode="&#xe935;" glyph-name="search" d="M918.69 86.673l-200.277 200.239c58.048 69.692 86.993 159.083 80.815 249.571-6.178 90.49-47.006 175.116-113.988 236.271s-154.961 94.133-245.641 92.072c-90.677-2.061-177.070-39.001-241.205-103.136s-101.076-150.528-103.136-241.207c-2.061-90.675 30.917-178.658 92.072-245.641s145.78-107.81 236.271-113.988c90.49-6.178 179.877 22.771 249.569 80.819l200.243-200.282c2.974-2.97 6.502-5.329 10.385-6.938 3.887-1.609 8.047-2.441 12.254-2.441 4.203 0 8.367 0.832 12.254 2.441 3.883 1.609 7.411 3.968 10.385 6.938 2.974 2.974 5.333 6.502 6.942 10.389 1.609 3.883 2.436 8.047 2.436 12.254 0 4.203-0.828 8.367-2.436 12.25-1.609 3.887-3.968 7.415-6.942 10.389zM160.051 512.034c0 56.96 16.891 112.641 48.537 160.003s76.625 84.275 129.251 106.073c52.625 21.798 110.533 27.501 166.401 16.389 55.863-11.113 107.183-38.542 147.46-78.819s67.703-91.594 78.818-147.461c11.11-55.864 5.41-113.776-16.388-166.401s-58.714-97.604-106.074-129.25c-47.36-31.646-103.044-48.533-160.004-48.533-76.357 0.081-149.562 30.451-203.554 84.446-53.992 53.99-84.362 127.198-84.447 203.554z" />
<glyph unicode="&#xe936;" glyph-name="down" d="M866.080 542.002l-319.997-319.999c-4.46-4.474-9.758-8.026-15.593-10.451-5.834-2.419-12.090-3.667-18.407-3.667s-12.573 1.248-18.407 3.667c-5.835 2.426-11.133 5.978-15.593 10.451l-320 319.999c-9.018 9.017-14.083 21.247-14.083 34s5.066 24.982 14.083 34c9.018 9.017 21.247 14.083 34 14.083s24.982-5.066 34-14.083l286.040-286.040 286.040 286.080c9.018 9.018 21.248 14.083 33.997 14.083 12.755 0 24.986-5.066 34.003-14.083s14.086-21.247 14.086-34c0-12.753-5.069-24.982-14.086-34l-0.083-0.040z" />
<glyph unicode="&#xe937;" glyph-name="shipping" horiz-adv-x="999" d="M965.542 490.928l-54.634 136.584c-4.635 11.556-12.633 21.454-22.96 28.412-10.325 6.958-22.501 10.655-34.953 10.612h-134.946v31.22c0 8.279-3.289 16.221-9.144 22.075s-13.797 9.144-22.076 9.144h-593.171c-16.56 0-32.442-6.578-44.151-18.288s-18.288-27.592-18.288-44.151v-437.073c0-16.559 6.578-32.441 18.288-44.152 11.71-11.709 27.591-18.287 44.151-18.287h66.341c6.878-26.861 22.5-50.671 44.404-67.671 21.904-17.003 48.844-26.232 76.572-26.232s54.669 9.228 76.573 26.232c21.904 17.001 37.526 40.81 44.404 67.671h195.119c6.878-26.861 22.501-50.671 44.404-67.671 21.904-17.003 48.845-26.232 76.573-26.232s54.669 9.228 76.573 26.232c21.904 17.001 37.526 40.81 44.404 67.671h66.34c16.559 0 32.441 6.579 44.152 18.287 11.709 11.711 18.287 27.593 18.287 44.152v249.756c0.010 4.011-0.759 7.987-2.263 11.709zM718.049 604.098h134.946l37.463-93.659h-172.409v93.659zM93.659 666.537h561.951v-249.756h-561.951v249.756zM280.976 135.805c-12.35 0-24.421 3.661-34.689 10.522s-18.271 16.614-22.997 28.023c-4.726 11.409-5.962 23.964-3.553 36.075 2.409 12.113 8.356 23.237 17.088 31.971 8.732 8.731 19.857 14.678 31.971 17.088 12.111 2.408 24.666 1.171 36.075-3.554s21.162-12.73 28.023-22.998c6.861-10.267 10.522-22.338 10.522-34.689 0-16.559-6.579-32.441-18.287-44.152-11.711-11.709-27.593-18.287-44.152-18.287zM597.072 229.463h-195.119c-6.878 26.861-22.501 50.671-44.404 67.671-21.904 17.003-48.845 26.232-76.573 26.232s-54.668-9.228-76.572-26.232c-21.904-17.001-37.526-40.81-44.404-67.671h-66.341v124.878h561.951v-48.038c-14.356-8.299-26.921-19.364-36.969-32.553-10.050-13.19-17.381-28.242-21.569-44.287zM718.049 135.805c-12.35 0-24.421 3.661-34.689 10.522s-18.272 16.614-22.998 28.023c-4.725 11.409-5.962 23.964-3.554 36.075 2.41 12.113 8.357 23.237 17.088 31.971 8.734 8.731 19.858 14.678 31.971 17.088 12.111 2.408 24.666 1.171 36.075-3.554s21.162-12.73 28.023-22.998c6.861-10.267 10.522-22.338 10.522-34.689 0-16.559-6.579-32.441-18.287-44.152-11.711-11.709-27.593-18.287-44.152-18.287zM905.366 229.463h-66.34c-6.961 26.796-22.613 50.528-44.504 67.477s-48.787 26.157-76.473 26.182v124.878h187.317v-218.537z" />
<glyph unicode="&#xe972;" glyph-name="sidebar" d="M896 832c23.565 0 42.667-19.103 42.667-42.667v-682.667c0-23.565-19.102-42.667-42.667-42.667h-768c-23.564 0-42.667 19.102-42.667 42.667v682.667c0 23.564 19.103 42.667 42.667 42.667h768zM298.667 746.667h-128v-597.333h128v597.333zM853.333 746.667h-469.333v-597.333h469.333v597.333z" />
</font>
</defs>
</svg>
